<?xml version="1.0" encoding="UTF-8"?>
<svg id="Layer_1" xmlns="http://www.w3.org/2000/svg" version="1.1" viewBox="0 0 379.79 113.38">
  <!-- Generator: Adobe Illustrator 29.5.0, SVG Export Plug-In . SVG Version: 2.1.0 Build 137)  -->
<g stroke="#ffffff" fill="#ffffff">
  <path d="M325.96,55.07c.55,11.44,1.81,22.91,4.99,33.91l5.65-3.24c-1.06,4.95-5.27,7.02-9.68,4.41-3.74-2.21-5.85-13.92-6.53-18.18l-7.3,12.53c-11.79,4.86-11.27-11.22-14.21-18.26l-4.86,1.67c-.63,1.03.58,4.91.51,6.89-.22,6.27-4.11,14.98-10.97,15.81-12.84,1.56-18.12-6.13-14.94-18.17-.22-.8-4.16-.54-4.12-3.31,4.41-10.12,21.31-13.57,27.92-3.83,15.58-6.23,13.38,5.76,17.86,15.55,1.15,0,4.22-6.72,4.83-8.11,1.53-3.5,4.71-16.61,5.69-17.81,1.3-1.59,3.61-.54,5.16.13ZM288,67.09c-3.1-7.69-10.62-6.99-15.39-1.2,2.75.75,1.7,3.02.81,5.25l14.58-4.05ZM273.52,72.88c-3.44,7.74,3.62,22.69,12.05,13.27,3.29-3.67,4.99-11.99,3.22-16.63l-15.27,3.35Z"/>
  <path d="M142.17,59c-.92,7.83-2.18,15.55-1.61,23.5,1.49-.25,1.36-1.66,1.72-2.73,1.22-3.59,4.12-18.51,6.02-19.9,1.52-1.11,5.05-1.23,6.02.55l3.25,22.89,7.2-20.56c3-1.4,5.38-.76,6.54,2.35,2.91,7.78,1.4,20.66,5.69,28.74-5.03,3.75-10.19-20.35-9.73-23.49-1.13.1-1.3,1.16-1.65,1.99-1.2,2.84-4.21,17.18-5.77,18.13-10.69,2.52-8.17-11.25-9.99-17.68-3.6,3.81-3,26.05-12.22,19.5-4.89-3.47-2.3-27.27,1.24-31.89.71-.93,2.1-1.5,3.28-1.39Z"/>
  <path d="M56.29,32.25c-1.54,1.6-6.89-7.23-7.68-8.11-7.71-8.51-12.45-14.83-20.2-2.35-8.26,13.3-10.44,40.4-4.92,55.03,3.63,9.6,14.47,21.14,25.51,17.03-3.35,4.91-13.48.87-17.73-1.31-21.91-11.26-21.85-39.41-15.69-60.08,8.64-29,30.71-25.22,40.71-.2Z"/>
  <path d="M368.2,41.99l-10.68,12.4c-2.73,5.24-6,12.14-3.93,18.02,3.39,9.6,26.39,10.49,10.99,23.88-5.6,4.87-10.07,5.39-17.43,4.84-1.27-1.11,5.23-4.78,6.1-5.64,14.05-13.9-6.82-14.25-10.35-22.92-4.7-11.53,12.63-32.14,25.31-30.58Z"/>
  <path d="M125.8,59.97l5.83,28.2c-2.82-.14-4.26-3.48-5.25-5.68-2.14-4.78-3.23-10.98-3.66-16.19-1.71-.24-1.31-.09-1.81,1.03-1.22,2.74-3.59,14.47-5.46,15.6-7.23,4.35-9.13-11.24-11.28-15.47-.32-.63-.28-2.54-1.68-1.15-.62.61-3.86,14.2-4.84,16.65-1.43,3.58-2.5,5.25-6.89,4.41-7.08-1.35-12.39-29.94,1.18-27.53-.16,2.19-2,2.9-2.38,5.31-.87,5.48-.07,13.28,2.79,18.17,4.41-5.89,2.48-21.95,12.16-21.12,6.37.54,5.42,12.94,9.3,16.28,1.25-4.11,4.7-23.8,11.99-18.48Z"/>
  <path d="M64.99,61.62c21.89-3.94,13.1,29.37-.96,29.01-1.61-.04-7.68-1.58-8.98-2.43-8.04-5.23.58-24.9,9.94-26.58ZM71.46,64.11c-8.7-7.29-17.42,20.71-8.16,24.78,7.73-1.92,14.23-19.69,8.16-24.78Z"/>
  <path d="M223.18,52.53c.42.44.58,1.74-1.02,1.43-4.99-.95-6.23-.97-10.34,2.18-7.93,6.09-16.35,20.06-.37,21.48,2.17.19,16.61-.87,15.78,2.84-.32,1.42-8.48,7.49-10.26,8.38-7.64,3.8-15.23,3.06-5.13-3.91l-1.21,4.05,10.12-8.5c.04-1.9-9.68-1.09-11.63-1.32-13.3-1.56-18.92-5.93-9.4-18.11,3.23-4.14,8.78-8.76,14.15-9.34,1.65-.18,8.43-.11,9.32.82Z"/>
  <path d="M241.82,54.96c-2.8,2.43-6.23,3.24-9.3,5.68-17.19,13.67,11.97,10.53,13.82,21.82.76,4.61-8.1,15.72-13.43,15.43,1.81-5.47,8.94-10.72,6.93-17.05-1.83-5.73-16.41-6.92-19.78-11.88-1.85-6.55,16.21-14.63,21.77-14Z"/>
  <path d="M259.64,98.7c-6.22.33-7.82-9.53-8.67-14.42-1.25-7.15-2.18-16.64,1.8-22.85,1.57-.14,1.6,1,1.97,2.07,1.49,4.23.42,9.32.96,13.63.91,7.27,2.88,14.34,3.94,21.57Z"/>
  <path d="M187.44,70.45c1.1.71,4.28,24.92,3.34,25.82-4.96.69-4.94-3.14-5.56-6.99-.44-2.69-1.84-18.21-.81-18.84h3.04Z"/>
  <path d="M189.07,50.97c2.46,5.5-5.25,1.83-8.01,1.53.38-1.97,7.26-1.98,8.01-1.53Z"/>
  <path d="M257.21,50.9l-2.08,1.56.46,2.48-4.86-1.63c-1.86-1.92,5.6-2.72,6.47-2.41Z"/></g>
</svg>