<?xml version="1.0" encoding="UTF-8"?>
<svg id="Layer_1" xmlns="http://www.w3.org/2000/svg" version="1.1" viewBox="0 0 272.61 113.38">
  <!-- Generator: Adobe Illustrator 29.5.0, SVG Export Plug-In . SVG Version: 2.1.0 Build 137)  -->
<g stroke="#ffffff" fill="#ffffff">
  <path d="M23.14,67.33c-.86.99,1.88,21.96,3.29,24.82-2.1.02-3.66.46-5.43-.95-3.7-2.94-4.82-18.28-5.42-23.18l-4.61-1.44c.24-1.47,3.78-1.35,4.05-2.46.55-2.24-.66-5.02-.72-7.26-.23-8.22-2.12-26.21.78-32.92,5.17-11.99,20.8-9.13,26.7.73,10.51,17.56.51,38.06-18.63,42.66ZM15.67,30.26l5.3,1.77,2.07,32.26c2.41,1.79,12.06-6.94,13.77-9.19,6.56-8.64,6.96-21.64,1.35-30.83-7.79-12.77-19.6-5.97-22.48,5.99Z"/>
  <path d="M125.98,86.78c-3.64,4.2-10.26,2.78-14.79.99-1.96-.77-6.37-4.15-7.18-4.23-1.27-.12-3.82,2.27-5.73,2.77-3.49.92-11.1.44-12.35-3.54-2.18-6.93,5.25-13.32,10.35-16.62.04-9.01,1.33-35.05,7.89-41.22,6.39-6.01,10.05,6.08,10.87,10.56,1.93,10.57,1.75,24.97-2.39,34.92-1.02,2.45-6.29,9.63-5.91,11,1.88,6.73,13.74,7.94,19.24,5.37ZM109.16,26.23c-1.9-1.44-4.6,7.9-4.87,8.9-2.71,10-2.9,21.16-2.49,31.43l5.35,1.38h-5.37s2.02,8.06,2.02,8.06c1.15.9,5.3-7.75,5.7-8.76,4.8-12.33,4.07-28.67-.33-41.03ZM97.73,70.63c-1.89-2.04-9.78,12.73-5.62,14.07,1.98.68,8.69-3.71,8.92-5.09-1.45-2.86-3.49-5.57-3.3-8.98Z"/>
  <path d="M214.1,65.92l16.81-4.03c-4.33,3.98-11.12,5.2-16.75,6.11-.53,9.79-.71,22.87,8.35,28.9,4.16-1.78,5.35-5.96,7.41-9.46.51-.87-.12-1.7,1.67-1.32-1.16,7.46.1,13.81-9.68,12.7-7.61-.87-12.65-8.27-13.87-15.39l-4.34,6.07c-4.93,3.79-11.73,7.04-17.76,3.93-.67-3.55,1.55-6.14,3.62-8.66.68,2.82-2.46,5.5.03,8.09,3.58-1.21,11.79-5.86,12.25-9.87.72-6.37-14.85-12.67-13.98-18.71.54-3.76,6.99-5.02,10.11-4.4l-4.63,3.81c-2.8,5.13,9.16,11.43,12.04,15.36,1.03,1.4.88,3.05,2.01,3.7-.18-10.77.15-21.83,2.22-32.43.37-1.89,1.49-9.59,4.83-8.6,1.97.58-.21,9.17-.31,11.1-.22,4.35.15,8.76,0,13.11Z"/>
  <path d="M49.29,71.98c-3.3,2.34-4.24,7.11-5.38,10.76-1.25.14-.55-1.41-.47-2.15.54-4.96,2.03-8.48,5.19-12.31.63-.76,1.72-1.04,2.35-1.68,2.56-2.59,1.74-4.53,6.66-3.99,1.31.14,5.51,1.4,6.82,1.94,16.82,6.82,13.29,39.23-8.43,29.97-9.12-3.89-8.84-14.26-6.74-22.53ZM55.51,66.08c-2.86,2.86-2.91,16-1.86,20.05,4.3,16.57,19.18,4.37,17.68-8.25-.33-2.79-3.05-9.92-5.54-11.35-1.27-.73-1.94.05-2.99-.28-.9-.28-1.51-1.58-3.05-1.61-.65-.01-3.83,1.04-4.24,1.44Z"/>
  <path d="M173.05,69.97c-.85,8.61-1.93,18.48,2.7,26.22-1.77,1.31-7.71-5.9-7.41-8.07-3.54,3.77-8.61,4.26-12.74.98-5.15-4.09-.03-17.07,4.33-20.5,4.61-3.63,8.1,1.8,13.12,1.37ZM164.66,68.62c-2.46-.02-10.37,19.06-4.05,21.35,3.2-.81,5.86-4.44,6.36-7.61.2-1.27.58-9.79.44-10.76s-2.13-2.13-2.75-2.98Z"/>
  <path d="M253.78,67.95c-2.32,4.39-7.7,6.99-5.91,12.98,1.39,4.63,16.34,6.2,15.23,10.74-1.04,4.26-13.29,11.62-18.06,11.26-.29-1.27.72-1.59,1.34-2.35,2.25-2.76,11.53-8.69,10.81-12.03-.25-1.14-15.28-4.34-14.72-10.67.36-4.07,7.01-10.26,11.31-9.92Z"/>
  <path d="M144.81,58.53l-4.68,1.7c-8.77,9.07-13.04,35.68,6.7,31.94-.59,1.59-3.74,1.45-5.03,1.36-5.2-.38-12.27-4.72-13.51-10.07-1.97-8.48,4.31-29.53,16.52-24.93Z"/>
</g>
</svg>