<?xml version="1.0" encoding="UTF-8"?>
<svg id="Layer_1" xmlns="http://www.w3.org/2000/svg" version="1.1" viewBox="0 0 167.44 113.38">
  <!-- Generator: Adobe Illustrator 29.5.0, SVG Export Plug-In . SVG Version: 2.1.0 Build 137)  -->
<g stroke="#ffffff" fill="#ffffff">
  <path d="M126.21,37.77l-4.17,1.44c-2.51,1.2-4.8,4.7-5.74,7.26-.63,1.7-2.43,7.22.24,7.73,6.04-.26,5.33-6.67,7.38-10.74,2.18-4.34,4.71-6.28,8.72-2.32.71,2.92-4.96,8.19-5.58,10.19-1.55,5-.82,16.14-.26,21.6.66,6.38,4.1,17.76,2.82,23.52-1.61,7.24-23.72,4.8-26.4.66-2.98-4.62,5.77-14.31,9.69-16.78l-5.45,9.91c-3.34,8.63,5.34,9.88,11.9,8.96,4.13-.58,4.58-3.71,4.47-7.34-.21-6.57-2.5-14.06-2.94-20.7-.34-5.12.24-10.51,0-15.66-9.27.55-11.78-3.01-7.4-11.24,2.91-5.47,6.45-7.26,12.71-6.48Z"/>
  <path d="M17.66,65.23c-3.1-2.18,1.64-3.33,4.57-2.7l-1.76.41c-.34,5.29,11.74,2.87,16.16,1.54,4.6-1.39,8.18-3.25,6.41-7.06-3.54-7.64-27.03-9.47-32.32-18.58-5.41-9.32,9.58-28.16,25.85-26.39,9.18,1,18.34,8.79,13.13,14.75l-1.43-.65c2.24-4.2-3.7-12.58-10.46-12.97-11.76-.69-22.63,13.09-23.25,19.86-1.19,12.87,19.67,13.36,29.56,20.45,11.96,8.58-6.04,14.03-16.86,13.46-1.99-.11-8.33-1.2-9.6-2.1Z"/>
  <path d="M84.86,39.54v14.18c1.42.32.96-.25,1.32-.77,1.51-2.19,6.3-12.21,7.96-12.71,1.1-.34,3.05-.14,3.98.53,2.18,1.58,1.39,14.69,5.6,18.03,3.02,2.4,6.59-.36,9.5-1.52-9.67,9.6-17.39-2.78-17.73-12.41-2.8,2.42-8.21,19.02-13.25,11.19-1.16-1.79-1.36-12.69-.92-15.04.37-1.98,1.93-1.47,3.55-1.48Z"/>
  <path d="M67.13,43.09l-4.13,2.94c8.18-1.63,16.62-.22,14.51,10.09-1.86,9.06-13.73,10.64-20.16,5.32-1.48-1.23-1.06-3.1-3.8-2.4l2.36-.59c-1.19-1.87-.14-3.37,0-5.31-2.18,1-5.26,3.11-2.95,5.31-8.55-2.21,1.41-7.1,3.84-9.45,3.29-3.19,3.59-7.21,10.34-5.9ZM59.52,59.09c3.04,8.65,13.11,2.06,14.43-4.75,1.37-7.08-1.79-8.67-8.12-6.95s-6.71,4.17-6.39,10.68l1.2.67-1.12.34Z"/>
  <path d="M151.62,39.53c-2.45-.35-6.35,2.28-6.95,4.59-1.66,6.37,9.8,10.34,10.78,16.04.78,4.48-8.97,6.43-12.1,4.78l5.28-2.09c8.13-5.38-7.46-11.88-8.22-17.15-.56-3.87,2.3-6.31,5.85-7.08,1.58-.34,4.54-.95,5.35.91Z"/></g>
</svg>