<?xml version="1.0" encoding="UTF-8"?>
<svg id="Layer_1" xmlns="http://www.w3.org/2000/svg" version="1.1" viewBox="0 0 465.04 146.19">
  <!-- Generator: Adobe Illustrator 29.5.0, SVG Export Plug-In . SVG Version: 2.1.0 Build 137)  -->
  <g>
    <polygon points="126.98 5.71 126.98 8.2 126.98 10.7 129.48 10.7 131.97 10.7 131.97 8.2 131.97 5.71 129.48 5.71 126.98 5.71"/>
    <polygon points="138.39 51.36 138.39 53.86 138.39 56.36 140.89 56.36 143.39 56.36 143.39 53.86 143.39 51.36 140.89 51.36 138.39 51.36"/>
    <polygon points="126.98 28.54 126.98 31.03 126.98 33.53 129.48 33.53 131.97 33.53 131.97 31.03 131.97 28.54 129.48 28.54 126.98 28.54"/>
    <polygon points="126.98 51.36 126.98 53.86 126.98 56.36 129.48 56.36 131.97 56.36 131.97 53.86 131.97 51.36 129.48 51.36 126.98 51.36"/>
    <polygon points="138.39 5.71 138.39 8.2 138.39 10.7 140.89 10.7 143.39 10.7 143.39 8.2 143.39 5.71 140.89 5.71 138.39 5.71"/>
    <polygon points="138.39 39.95 138.39 42.45 138.39 44.94 140.89 44.94 143.39 44.94 143.39 42.45 143.39 39.95 140.89 39.95 138.39 39.95"/>
    <polygon points="138.39 28.54 138.39 31.03 138.39 33.53 140.89 33.53 143.39 33.53 143.39 31.03 143.39 28.54 140.89 28.54 138.39 28.54"/>
    <polygon points="104.15 5.71 104.15 8.2 104.15 10.7 106.65 10.7 109.15 10.7 109.15 8.2 109.15 5.71 106.65 5.71 104.15 5.71"/>
    <polygon points="104.15 28.54 104.15 31.03 104.15 33.53 106.65 33.53 109.15 33.53 109.15 31.03 109.15 28.54 106.65 28.54 104.15 28.54"/>
    <polygon points="104.15 17.12 104.15 19.62 104.15 22.11 106.65 22.11 109.15 22.11 109.15 19.62 109.15 17.12 106.65 17.12 104.15 17.12"/>
    <polygon points="104.15 51.36 104.15 53.86 104.15 56.36 106.65 56.36 109.15 56.36 109.15 53.86 109.15 51.36 106.65 51.36 104.15 51.36"/>
    <polygon points="115.57 5.71 115.57 8.2 115.57 10.7 118.06 10.7 120.56 10.7 120.56 8.2 120.56 5.71 118.06 5.71 115.57 5.71"/>
    <polygon points="115.57 51.36 115.57 53.86 115.57 56.36 118.06 56.36 120.56 56.36 120.56 53.86 120.56 51.36 118.06 51.36 115.57 51.36"/>
    <polygon points="115.57 28.54 115.57 31.03 115.57 33.53 118.06 33.53 120.56 33.53 120.56 31.03 120.56 28.54 118.06 28.54 115.57 28.54"/>
    <polygon points="178.97 4.28 178.97 8.2 178.97 12.13 182.9 12.13 186.82 12.13 186.82 8.2 186.82 4.28 182.9 4.28 178.97 4.28"/>
    <polygon points="178.97 49.94 178.97 53.86 178.97 57.78 182.9 57.78 186.82 57.78 186.82 53.86 186.82 49.94 182.9 49.94 178.97 49.94"/>
    <polygon points="167.56 38.52 167.56 42.45 167.56 46.37 171.48 46.37 175.41 46.37 175.41 42.45 175.41 38.52 171.48 38.52 167.56 38.52"/>
    <polygon points="190.39 49.94 190.39 53.86 190.39 57.78 194.31 57.78 198.23 57.78 198.23 53.86 198.23 49.94 194.31 49.94 190.39 49.94"/>
    <polygon points="167.56 27.11 167.56 31.03 167.56 34.96 171.48 34.96 175.41 34.96 175.41 31.03 175.41 27.11 171.48 27.11 167.56 27.11"/>
    <polygon points="213.21 27.11 213.21 31.03 213.21 34.96 217.14 34.96 221.06 34.96 221.06 31.03 221.06 27.11 217.14 27.11 213.21 27.11"/>
    <polygon points="213.21 38.52 213.21 42.45 213.21 46.37 217.14 46.37 221.06 46.37 221.06 42.45 221.06 38.52 217.14 38.52 213.21 38.52"/>
    <polygon points="190.39 4.28 190.39 8.2 190.39 12.13 194.31 12.13 198.23 12.13 198.23 8.2 198.23 4.28 194.31 4.28 190.39 4.28"/>
    <polygon points="213.21 15.69 213.21 19.62 213.21 23.54 217.14 23.54 221.06 23.54 221.06 19.62 221.06 15.69 217.14 15.69 213.21 15.69"/>
    <polygon points="201.8 49.94 201.8 53.86 201.8 57.78 205.72 57.78 209.65 57.78 209.65 53.86 209.65 49.94 205.72 49.94 201.8 49.94"/>
    <polygon points="201.8 4.28 201.8 8.2 201.8 12.13 205.72 12.13 209.65 12.13 209.65 8.2 209.65 4.28 205.72 4.28 201.8 4.28"/>
    <polygon points="280.99 49.22 280.99 53.86 280.99 58.5 285.62 58.5 290.26 58.5 290.26 53.86 290.26 49.22 285.62 49.22 280.99 49.22"/>
    <polygon points="269.57 49.22 269.57 53.86 269.57 58.5 274.21 58.5 278.85 58.5 278.85 53.86 278.85 49.22 274.21 49.22 269.57 49.22"/>
    <polygon points="292.4 14.98 292.4 19.62 292.4 24.25 297.04 24.25 301.67 24.25 301.67 19.62 301.67 14.98 297.04 14.98 292.4 14.98"/>
    <polygon points="292.4 3.57 292.4 8.2 292.4 12.84 297.04 12.84 301.67 12.84 301.67 8.2 301.67 3.57 297.04 3.57 292.4 3.57"/>
    <polygon points="292.4 26.4 292.4 31.03 292.4 35.67 297.04 35.67 301.67 35.67 301.67 31.03 301.67 26.4 297.04 26.4 292.4 26.4"/>
    <polygon points="258.16 49.22 258.16 53.86 258.16 58.5 262.79 58.5 267.43 58.5 267.43 53.86 267.43 49.22 262.79 49.22 258.16 49.22"/>
    <polygon points="246.74 37.81 246.74 42.45 246.74 47.08 251.38 47.08 256.02 47.08 256.02 42.45 256.02 37.81 251.38 37.81 246.74 37.81"/>
    <polygon points="246.74 26.4 246.74 31.03 246.74 35.67 251.38 35.67 256.02 35.67 256.02 31.03 256.02 26.4 251.38 26.4 246.74 26.4"/>
    <polygon points="246.74 3.57 246.74 8.2 246.74 12.84 251.38 12.84 256.02 12.84 256.02 8.2 256.02 3.57 251.38 3.57 246.74 3.57"/>
    <polygon points="246.74 14.98 246.74 19.62 246.74 24.25 251.38 24.25 256.02 24.25 256.02 19.62 256.02 14.98 251.38 14.98 246.74 14.98"/>
    <polygon points="370.16 1.43 370.16 8.2 370.16 12.84 370.16 14.98 370.16 19.62 370.16 24.25 370.16 26.4 370.16 31.03 370.16 35.67 370.16 37.81 370.16 42.45 370.16 47.08 365.52 47.08 360.88 47.08 360.88 42.45 360.88 37.81 360.88 35.67 360.88 31.03 360.88 26.4 360.88 24.25 360.88 19.62 360.88 14.98 360.88 12.84 360.88 8.2 360.88 1.43 354.11 1.43 349.47 1.43 347.33 1.43 342.69 1.43 338.06 1.43 335.92 1.43 331.28 1.43 324.5 1.43 324.5 8.2 324.5 12.84 324.5 14.98 324.5 19.62 324.5 24.25 324.5 26.4 324.5 31.03 324.5 35.67 324.5 37.81 324.5 42.45 324.5 47.08 324.5 49.22 324.5 53.86 324.5 60.64 331.28 60.64 338.06 60.64 338.06 53.86 338.06 49.22 338.06 47.08 338.06 42.45 338.06 37.81 338.06 35.67 338.06 31.03 338.06 26.4 338.06 24.25 338.06 19.62 338.06 14.98 342.69 14.98 347.33 14.98 347.33 19.62 347.33 24.25 347.33 26.4 347.33 31.03 347.33 35.67 347.33 37.81 347.33 42.45 347.33 47.08 347.33 49.22 347.33 53.86 347.33 60.64 354.11 60.64 358.74 60.64 360.88 60.64 365.52 60.64 370.16 60.64 372.3 60.64 376.93 60.64 383.71 60.64 383.71 53.86 383.71 49.22 383.71 47.08 383.71 42.45 383.71 37.81 383.71 35.67 383.71 31.03 383.71 26.4 383.71 24.25 383.71 19.62 383.71 14.98 383.71 12.84 383.71 8.2 383.71 1.43 376.93 1.43 370.16 1.43"/>
    <polygon points="456.83 11.41 453.62 11.41 453.62 8.2 453.62 0 445.42 0 442.21 0 437.22 0 434 0 430.79 0 425.8 0 422.59 0 419.38 0 414.39 0 411.18 0 402.97 0 402.97 8.2 402.97 11.41 402.97 16.41 402.97 19.62 402.97 22.83 402.97 27.82 402.97 31.03 402.97 34.24 402.97 39.24 402.97 42.45 402.97 45.66 402.97 50.65 402.97 53.86 402.97 62.06 411.18 62.06 419.38 62.06 419.38 53.86 419.38 50.65 419.38 45.66 419.38 42.45 419.38 39.24 419.38 34.24 419.38 31.03 419.38 27.82 419.38 22.83 419.38 19.62 419.38 16.41 422.59 16.41 425.8 16.41 430.79 16.41 434 16.41 437.22 16.41 442.21 16.41 445.42 16.41 448.63 16.41 448.63 19.62 448.63 22.83 448.63 27.82 448.63 31.03 448.63 34.24 448.63 39.24 448.63 42.45 448.63 45.66 445.42 45.66 442.21 45.66 437.22 45.66 434 45.66 425.8 45.66 425.8 53.86 425.8 62.06 434 62.06 437.22 62.06 442.21 62.06 445.42 62.06 453.62 62.06 453.62 53.86 453.62 50.65 456.83 50.65 465.04 50.65 465.04 42.45 465.04 39.24 465.04 34.24 465.04 31.03 465.04 27.82 465.04 22.83 465.04 19.62 465.04 11.41 456.83 11.41"/>
  </g>
  <g>
    <polygon points="42.09 81.27 34.24 81.27 32.46 81.27 30.68 81.27 22.83 81.27 21.04 81.27 19.26 81.27 11.41 81.27 9.63 81.27 0 81.27 0 90.9 0 92.69 0 100.53 0 102.32 0 104.1 0 111.95 0 113.73 0 123.36 9.63 123.36 11.41 123.36 19.26 123.36 21.04 123.36 22.83 123.36 30.68 123.36 32.46 123.36 34.24 123.36 34.24 125.15 34.24 126.93 32.46 126.93 30.68 126.93 22.83 126.93 21.04 126.93 19.26 126.93 11.41 126.93 9.63 126.93 0 126.93 0 136.56 0 146.19 9.63 146.19 11.41 146.19 19.26 146.19 21.04 146.19 22.83 146.19 30.68 146.19 32.46 146.19 34.24 146.19 42.09 146.19 43.87 146.19 53.5 146.19 53.5 136.56 53.5 134.78 53.5 126.93 53.5 125.15 53.5 123.36 53.5 115.52 53.5 113.73 53.5 104.1 43.87 104.1 42.09 104.1 34.24 104.1 32.46 104.1 30.68 104.1 22.83 104.1 21.04 104.1 19.26 104.1 19.26 102.32 19.26 100.53 21.04 100.53 22.83 100.53 30.68 100.53 32.46 100.53 34.24 100.53 42.09 100.53 43.87 100.53 53.5 100.53 53.5 90.9 53.5 81.27 43.87 81.27 42.09 81.27"/>
    <polygon points="86.32 104.81 86.32 113.73 86.32 116.23 86.32 122.65 86.32 125.15 86.32 127.64 86.32 134.06 86.32 136.56 86.32 145.48 95.24 145.48 104.15 145.48 104.15 136.56 104.15 134.06 104.15 127.64 104.15 125.15 104.15 122.65 104.15 116.23 104.15 113.73 104.15 104.81 95.24 104.81 86.32 104.81"/>
    <rect x="63.49" y="81.99" width="63.49" height="17.83"/>
    <polygon points="189.05 94.11 189.05 90.9 189.05 82.7 180.84 82.7 177.63 82.7 172.64 82.7 169.43 82.7 166.22 82.7 161.22 82.7 158.01 82.7 149.81 82.7 149.81 90.9 149.81 99.11 158.01 99.11 161.22 99.11 166.22 99.11 169.43 99.11 172.64 99.11 177.63 99.11 180.84 99.11 184.05 99.11 184.05 102.32 184.05 105.53 184.05 110.52 184.05 113.73 184.05 116.94 184.05 121.94 184.05 125.15 184.05 128.36 180.84 128.36 177.63 128.36 172.64 128.36 169.43 128.36 166.22 128.36 161.22 128.36 158.01 128.36 154.8 128.36 154.8 125.15 154.8 121.94 154.8 116.94 154.8 113.73 154.8 105.53 146.6 105.53 138.4 105.53 138.4 113.73 138.4 116.94 138.4 121.94 138.4 125.15 138.4 133.35 146.6 133.35 149.81 133.35 149.81 136.56 149.81 144.76 158.01 144.76 161.22 144.76 166.22 144.76 169.43 144.76 172.64 144.76 177.63 144.76 180.84 144.76 189.05 144.76 189.05 136.56 189.05 133.35 192.26 133.35 200.46 133.35 200.46 125.15 200.46 121.94 200.46 116.94 200.46 113.73 200.46 110.52 200.46 105.53 200.46 102.32 200.46 94.11 192.26 94.11 189.05 94.11"/>
    <polygon points="269.34 129.78 269.34 125.15 269.34 120.51 269.34 118.37 269.34 113.73 269.34 106.95 262.57 106.95 257.93 106.95 255.79 106.95 251.15 106.95 246.52 106.95 244.37 106.95 239.74 106.95 235.1 106.95 235.1 102.32 235.1 97.68 239.74 97.68 244.37 97.68 246.52 97.68 251.15 97.68 255.79 97.68 257.93 97.68 262.57 97.68 269.34 97.68 269.34 90.9 269.34 84.13 262.57 84.13 257.93 84.13 255.79 84.13 251.15 84.13 246.52 84.13 244.37 84.13 239.74 84.13 235.1 84.13 232.96 84.13 228.32 84.13 221.55 84.13 221.55 90.9 221.55 95.54 221.55 97.68 221.55 102.32 221.55 106.95 221.55 109.1 221.55 113.73 221.55 118.37 221.55 120.51 221.55 125.15 221.55 129.78 221.55 131.92 221.55 136.56 221.55 143.34 228.32 143.34 235.1 143.34 235.1 136.56 235.1 131.92 235.1 129.78 235.1 125.15 235.1 120.51 239.74 120.51 244.37 120.51 246.52 120.51 251.15 120.51 255.79 120.51 255.79 125.15 255.79 129.78 255.79 131.92 255.79 136.56 255.79 143.34 262.57 143.34 267.2 143.34 269.34 143.34 273.98 143.34 280.76 143.34 280.76 136.56 280.76 129.78 273.98 129.78 269.34 129.78"/>
    <polygon points="313.17 86.27 313.17 90.9 313.17 95.54 317.81 95.54 322.45 95.54 322.45 90.9 322.45 86.27 317.81 86.27 313.17 86.27"/>
    <polygon points="324.59 131.92 324.59 136.56 324.59 141.2 329.22 141.2 333.86 141.2 333.86 136.56 333.86 131.92 329.22 131.92 324.59 131.92"/>
    <polygon points="313.17 109.1 313.17 113.73 313.17 118.37 317.81 118.37 322.45 118.37 322.45 113.73 322.45 109.1 317.81 109.1 313.17 109.1"/>
    <polygon points="324.59 86.27 324.59 90.9 324.59 95.54 329.22 95.54 333.86 95.54 333.86 90.9 333.86 86.27 329.22 86.27 324.59 86.27"/>
    <polygon points="313.17 131.92 313.17 136.56 313.17 141.2 317.81 141.2 322.45 141.2 322.45 136.56 322.45 131.92 317.81 131.92 313.17 131.92"/>
    <polygon points="301.76 86.27 301.76 90.9 301.76 95.54 306.4 95.54 311.03 95.54 311.03 90.9 311.03 86.27 306.4 86.27 301.76 86.27"/>
    <polygon points="301.76 131.92 301.76 136.56 301.76 141.2 306.4 141.2 311.03 141.2 311.03 136.56 311.03 131.92 306.4 131.92 301.76 131.92"/>
    <polygon points="313.17 120.51 313.17 125.15 313.17 129.78 317.81 129.78 322.45 129.78 322.45 125.15 322.45 120.51 317.81 120.51 313.17 120.51"/>
    <polygon points="370.96 86.98 370.96 90.9 370.96 94.83 374.88 94.83 378.8 94.83 378.8 90.9 378.8 86.98 374.88 86.98 370.96 86.98"/>
    <polygon points="359.54 86.98 359.54 90.9 359.54 94.83 363.47 94.83 367.39 94.83 367.39 90.9 367.39 86.98 363.47 86.98 359.54 86.98"/>
    <polygon points="370.96 132.64 370.96 136.56 370.96 140.48 374.88 140.48 378.8 140.48 378.8 136.56 378.8 132.64 374.88 132.64 370.96 132.64"/>
    <polygon points="359.54 109.81 359.54 113.73 359.54 117.66 363.47 117.66 367.39 117.66 367.39 113.73 367.39 109.81 363.47 109.81 359.54 109.81"/>
    <polygon points="382.37 132.64 382.37 136.56 382.37 140.48 386.29 140.48 390.22 140.48 390.22 136.56 390.22 132.64 386.29 132.64 382.37 132.64"/>
    <polygon points="359.54 132.64 359.54 136.56 359.54 140.48 363.47 140.48 367.39 140.48 367.39 136.56 367.39 132.64 363.47 132.64 359.54 132.64"/>
    <polygon points="370.96 109.81 370.96 113.73 370.96 117.66 374.88 117.66 378.8 117.66 378.8 113.73 378.8 109.81 374.88 109.81 370.96 109.81"/>
    <polygon points="393.79 86.98 393.79 90.9 393.79 94.83 397.71 94.83 401.63 94.83 401.63 90.9 401.63 86.98 397.71 86.98 393.79 86.98"/>
    <polygon points="393.79 109.81 393.79 113.73 393.79 117.66 397.71 117.66 401.63 117.66 401.63 113.73 401.63 109.81 397.71 109.81 393.79 109.81"/>
    <polygon points="382.37 109.81 382.37 113.73 382.37 117.66 386.29 117.66 390.22 117.66 390.22 113.73 390.22 109.81 386.29 109.81 382.37 109.81"/>
    <polygon points="382.37 86.98 382.37 90.9 382.37 94.83 386.29 94.83 390.22 94.83 390.22 90.9 390.22 86.98 386.29 86.98 382.37 86.98"/>
    <polygon points="393.79 132.64 393.79 136.56 393.79 140.48 397.71 140.48 401.63 140.48 401.63 136.56 401.63 132.64 397.71 132.64 393.79 132.64"/>
    <polygon points="448.63 88.41 448.63 90.9 448.63 93.4 451.13 93.4 453.62 93.4 453.62 90.9 453.62 88.41 451.13 88.41 448.63 88.41"/>
    <polygon points="462.54 88.41 460.04 88.41 460.04 90.9 460.04 93.4 462.54 93.4 465.04 93.4 465.04 90.9 465.04 88.41 462.54 88.41"/>
    <polygon points="448.63 111.24 448.63 113.73 448.63 116.23 451.13 116.23 453.62 116.23 453.62 113.73 453.62 111.24 451.13 111.24 448.63 111.24"/>
    <polygon points="448.63 134.06 448.63 136.56 448.63 139.06 451.13 139.06 453.62 139.06 453.62 136.56 453.62 134.06 451.13 134.06 448.63 134.06"/>
    <polygon points="460.04 111.24 460.04 113.73 460.04 116.23 462.54 116.23 465.04 116.23 465.04 113.73 465.04 111.24 462.54 111.24 460.04 111.24"/>
    <polygon points="460.04 122.65 460.04 125.15 460.04 127.64 462.54 127.64 465.04 127.64 465.04 125.15 465.04 122.65 462.54 122.65 460.04 122.65"/>
    <polygon points="460.04 134.06 460.04 136.56 460.04 139.06 462.54 139.06 465.04 139.06 465.04 136.56 465.04 134.06 462.54 134.06 460.04 134.06"/>
    <polygon points="437.22 134.06 437.22 136.56 437.22 139.06 439.71 139.06 442.21 139.06 442.21 136.56 442.21 134.06 439.71 134.06 437.22 134.06"/>
    <polygon points="437.22 88.41 437.22 90.9 437.22 93.4 439.71 93.4 442.21 93.4 442.21 90.9 442.21 88.41 439.71 88.41 437.22 88.41"/>
    <polygon points="425.8 134.06 425.8 136.56 425.8 139.06 428.3 139.06 430.79 139.06 430.79 136.56 430.79 134.06 428.3 134.06 425.8 134.06"/>
    <polygon points="425.8 99.82 425.8 102.32 425.8 104.81 428.3 104.81 430.79 104.81 430.79 102.32 430.79 99.82 428.3 99.82 425.8 99.82"/>
    <polygon points="425.8 111.24 425.8 113.73 425.8 116.23 428.3 116.23 430.79 116.23 430.79 113.73 430.79 111.24 428.3 111.24 425.8 111.24"/>
    <polygon points="437.22 111.24 437.22 113.73 437.22 116.23 439.71 116.23 442.21 116.23 442.21 113.73 442.21 111.24 439.71 111.24 437.22 111.24"/>
    <polygon points="425.8 88.41 425.8 90.9 425.8 93.4 428.3 93.4 430.79 93.4 430.79 90.9 430.79 88.41 428.3 88.41 425.8 88.41"/>
  </g>
</svg>