<?xml version="1.0" encoding="UTF-8"?>
<svg id="Layer_1" xmlns="http://www.w3.org/2000/svg" version="1.1" viewBox="0 0 465.04 146.19">
  <!-- Generator: Adobe Illustrator 29.5.0, SVG Export Plug-In . SVG Version: 2.1.0 Build 137)  -->
  <defs>
    <style>
      .st0 {
        fill: #fff;
      }
    </style>
  </defs>
  <polygon class="st0" points="120.92 56 120.92 53.5 120.92 51.01 118.42 51.01 115.92 51.01 115.92 53.5 115.92 56 118.42 56 120.92 56"/>
  <polygon class="st0" points="109.5 10.34 109.5 7.85 109.5 5.35 107.01 5.35 104.51 5.35 104.51 7.85 104.51 10.34 107.01 10.34 109.5 10.34"/>
  <polygon class="st0" points="109.5 33.17 109.5 30.68 109.5 28.18 107.01 28.18 104.51 28.18 104.51 30.68 104.51 33.17 107.01 33.17 109.5 33.17"/>
  <polygon class="st0" points="127.34 28.18 127.34 30.68 127.34 33.17 129.83 33.17 132.33 33.17 132.33 30.68 132.33 28.18 129.83 28.18 127.34 28.18"/>
  <polygon class="st0" points="109.5 56 109.5 53.5 109.5 51.01 107.01 51.01 104.51 51.01 104.51 53.5 104.51 56 107.01 56 109.5 56"/>
  <polygon class="st0" points="127.34 51.01 127.34 53.5 127.34 56 129.83 56 132.33 56 132.33 53.5 132.33 51.01 129.83 51.01 127.34 51.01"/>
  <polygon class="st0" points="143.75 56 143.75 53.5 143.75 51.01 141.25 51.01 138.75 51.01 138.75 53.5 138.75 56 141.25 56 143.75 56"/>
  <polygon class="st0" points="120.92 33.17 120.92 30.68 120.92 28.18 118.42 28.18 115.92 28.18 115.92 30.68 115.92 33.17 118.42 33.17 120.92 33.17"/>
  <polygon class="st0" points="143.75 33.17 143.75 30.68 143.75 28.18 141.25 28.18 138.75 28.18 138.75 30.68 138.75 33.17 141.25 33.17 143.75 33.17"/>
  <polygon class="st0" points="143.75 10.34 143.75 7.85 143.75 5.35 141.25 5.35 138.75 5.35 138.75 7.85 138.75 10.34 141.25 10.34 143.75 10.34"/>
  <polygon class="st0" points="143.75 44.59 143.75 42.09 143.75 39.59 141.25 39.59 138.75 39.59 138.75 42.09 138.75 44.59 141.25 44.59 143.75 44.59"/>
  <polygon class="st0" points="120.92 10.34 120.92 7.85 120.92 5.35 118.42 5.35 115.92 5.35 115.92 7.85 115.92 10.34 118.42 10.34 120.92 10.34"/>
  <polygon class="st0" points="127.34 5.35 127.34 7.85 127.34 10.34 129.83 10.34 132.33 10.34 132.33 7.85 132.33 5.35 129.83 5.35 127.34 5.35"/>
  <polygon class="st0" points="109.5 21.76 109.5 19.26 109.5 16.76 107.01 16.76 104.51 16.76 104.51 19.26 104.51 21.76 107.01 21.76 109.5 21.76"/>
  <polygon class="st0" points="198.23 57.07 198.23 53.5 198.23 49.94 194.67 49.94 191.1 49.94 191.1 53.5 191.1 57.07 194.67 57.07 198.23 57.07"/>
  <polygon class="st0" points="175.41 34.24 175.41 30.68 175.41 27.11 171.84 27.11 168.27 27.11 168.27 30.68 168.27 34.24 171.84 34.24 175.41 34.24"/>
  <polygon class="st0" points="202.51 49.94 202.51 53.5 202.51 57.07 206.08 57.07 209.65 57.07 209.65 53.5 209.65 49.94 206.08 49.94 202.51 49.94"/>
  <polygon class="st0" points="175.41 45.66 175.41 42.09 175.41 38.52 171.84 38.52 168.27 38.52 168.27 42.09 168.27 45.66 171.84 45.66 175.41 45.66"/>
  <polygon class="st0" points="186.82 11.41 186.82 7.85 186.82 4.28 183.25 4.28 179.69 4.28 179.69 7.85 179.69 11.41 183.25 11.41 186.82 11.41"/>
  <polygon class="st0" points="186.82 57.07 186.82 53.5 186.82 49.94 183.25 49.94 179.69 49.94 179.69 53.5 179.69 57.07 183.25 57.07 186.82 57.07"/>
  <polygon class="st0" points="198.23 11.41 198.23 7.85 198.23 4.28 194.67 4.28 191.1 4.28 191.1 7.85 191.1 11.41 194.67 11.41 198.23 11.41"/>
  <polygon class="st0" points="202.51 4.28 202.51 7.85 202.51 11.41 206.08 11.41 209.65 11.41 209.65 7.85 209.65 4.28 206.08 4.28 202.51 4.28"/>
  <polygon class="st0" points="213.93 15.69 213.93 19.26 213.93 22.83 217.49 22.83 221.06 22.83 221.06 19.26 221.06 15.69 217.49 15.69 213.93 15.69"/>
  <polygon class="st0" points="213.93 38.52 213.93 42.09 213.93 45.66 217.49 45.66 221.06 45.66 221.06 42.09 221.06 38.52 217.49 38.52 213.93 38.52"/>
  <polygon class="st0" points="213.93 27.11 213.93 30.68 213.93 34.24 217.49 34.24 221.06 34.24 221.06 30.68 221.06 27.11 217.49 27.11 213.93 27.11"/>
  <polygon class="st0" points="280.99 48.51 280.99 53.5 280.99 58.5 285.98 58.5 290.97 58.5 290.97 53.5 290.97 48.51 285.98 48.51 280.99 48.51"/>
  <polygon class="st0" points="302.39 30.68 302.39 25.68 297.39 25.68 292.4 25.68 292.4 30.68 292.4 35.67 297.39 35.67 302.39 35.67 302.39 30.68"/>
  <polygon class="st0" points="279.56 58.5 279.56 53.5 279.56 48.51 274.56 48.51 269.57 48.51 269.57 53.5 269.57 58.5 274.56 58.5 279.56 58.5"/>
  <polygon class="st0" points="256.73 24.25 256.73 19.26 256.73 14.27 251.74 14.27 246.74 14.27 246.74 19.26 246.74 24.25 251.74 24.25 256.73 24.25"/>
  <polygon class="st0" points="256.73 12.84 256.73 7.85 256.73 2.85 251.74 2.85 246.74 2.85 246.74 7.85 246.74 12.84 251.74 12.84 256.73 12.84"/>
  <polygon class="st0" points="256.73 35.67 256.73 30.68 256.73 25.68 251.74 25.68 246.74 25.68 246.74 30.68 246.74 35.67 251.74 35.67 256.73 35.67"/>
  <polygon class="st0" points="302.39 12.84 302.39 7.85 302.39 2.85 297.39 2.85 292.4 2.85 292.4 7.85 292.4 12.84 297.39 12.84 302.39 12.84"/>
  <polygon class="st0" points="256.73 47.08 256.73 42.09 256.73 37.1 251.74 37.1 246.74 37.1 246.74 42.09 246.74 47.08 251.74 47.08 256.73 47.08"/>
  <polygon class="st0" points="302.39 24.25 302.39 19.26 302.39 14.27 297.39 14.27 292.4 14.27 292.4 19.26 292.4 24.25 297.39 24.25 302.39 24.25"/>
  <polygon class="st0" points="268.14 58.5 268.14 53.5 268.14 48.51 263.15 48.51 258.16 48.51 258.16 53.5 258.16 58.5 263.15 58.5 268.14 58.5"/>
  <polygon class="st0" points="360.88 59.92 365.88 59.92 370.87 59.92 372.3 59.92 377.29 59.92 383.71 59.92 383.71 53.5 383.71 48.51 383.71 47.08 383.71 42.09 383.71 37.1 383.71 35.67 383.71 30.68 383.71 25.68 383.71 24.25 383.71 19.26 383.71 14.27 383.71 12.84 383.71 7.85 383.71 1.43 377.29 1.43 370.87 1.43 370.87 7.85 370.87 12.84 370.87 14.27 370.87 19.26 370.87 24.25 370.87 25.68 370.87 30.68 370.87 35.67 370.87 37.1 370.87 42.09 370.87 47.08 365.88 47.08 360.88 47.08 360.88 42.09 360.88 37.1 360.88 35.67 360.88 30.68 360.88 25.68 360.88 24.25 360.88 19.26 360.88 14.27 360.88 12.84 360.88 7.85 360.88 1.43 354.46 1.43 349.47 1.43 348.04 1.43 343.05 1.43 338.06 1.43 336.63 1.43 331.64 1.43 325.21 1.43 325.21 7.85 325.21 12.84 325.21 14.27 325.21 19.26 325.21 24.25 325.21 25.68 325.21 30.68 325.21 35.67 325.21 37.1 325.21 42.09 325.21 47.08 325.21 48.51 325.21 53.5 325.21 59.92 331.64 59.92 338.06 59.92 338.06 53.5 338.06 48.51 338.06 47.08 338.06 42.09 338.06 37.1 338.06 35.67 338.06 30.68 338.06 25.68 338.06 24.25 338.06 19.26 338.06 14.27 343.05 14.27 348.04 14.27 348.04 19.26 348.04 24.25 348.04 25.68 348.04 30.68 348.04 35.67 348.04 37.1 348.04 42.09 348.04 47.08 348.04 48.51 348.04 53.5 348.04 59.92 354.46 59.92 359.46 59.92 360.88 59.92"/>
  <polygon class="st0" points="457.19 11.41 453.62 11.41 453.62 7.85 453.62 0 445.78 0 442.21 0 437.93 0 434.36 0 430.79 0 426.51 0 422.95 0 419.38 0 415.1 0 411.53 0 403.69 0 403.69 7.85 403.69 11.41 403.69 15.69 403.69 19.26 403.69 22.83 403.69 27.11 403.69 30.68 403.69 34.24 403.69 38.52 403.69 42.09 403.69 45.66 403.69 49.94 403.69 53.5 403.69 61.35 411.53 61.35 419.38 61.35 419.38 53.5 419.38 49.94 419.38 45.66 419.38 42.09 419.38 38.52 419.38 34.24 419.38 30.68 419.38 27.11 419.38 22.83 419.38 19.26 419.38 15.69 422.95 15.69 426.51 15.69 430.79 15.69 434.36 15.69 437.93 15.69 442.21 15.69 445.78 15.69 449.34 15.69 449.34 19.26 449.34 22.83 449.34 27.11 449.34 30.68 449.34 34.24 449.34 38.52 449.34 42.09 449.34 45.66 445.78 45.66 442.21 45.66 437.93 45.66 434.36 45.66 426.51 45.66 426.51 53.5 426.51 61.35 434.36 61.35 437.93 61.35 442.21 61.35 445.78 61.35 453.62 61.35 453.62 53.5 453.62 49.94 457.19 49.94 465.04 49.94 465.04 42.09 465.04 38.52 465.04 34.24 465.04 30.68 465.04 27.11 465.04 22.83 465.04 19.26 465.04 11.41 457.19 11.41"/>
  <polygon class="st0" points="40.66 82.7 34.24 82.7 31.75 82.7 29.25 82.7 22.83 82.7 20.33 82.7 17.83 82.7 11.41 82.7 8.92 82.7 0 82.7 0 91.62 0 94.11 0 100.53 0 103.03 0 105.53 0 111.95 0 114.45 0 123.36 8.92 123.36 11.41 123.36 17.83 123.36 20.33 123.36 22.83 123.36 29.25 123.36 31.75 123.36 34.24 123.36 34.24 125.86 34.24 128.36 31.75 128.36 29.25 128.36 22.83 128.36 20.33 128.36 17.83 128.36 11.41 128.36 8.92 128.36 0 128.36 0 137.27 0 146.19 8.92 146.19 11.41 146.19 17.83 146.19 20.33 146.19 22.83 146.19 29.25 146.19 31.75 146.19 34.24 146.19 40.66 146.19 43.16 146.19 52.08 146.19 52.08 137.27 52.08 134.78 52.08 128.36 52.08 125.86 52.08 123.36 52.08 116.94 52.08 114.45 52.08 105.53 43.16 105.53 40.66 105.53 34.24 105.53 31.75 105.53 29.25 105.53 22.83 105.53 20.33 105.53 17.83 105.53 17.83 103.03 17.83 100.53 20.33 100.53 22.83 100.53 29.25 100.53 31.75 100.53 34.24 100.53 40.66 100.53 43.16 100.53 52.08 100.53 52.08 91.62 52.08 82.7 43.16 82.7 40.66 82.7"/>
  <polygon class="st0" points="114.5 83.06 108.79 83.06 105.94 83.06 103.08 83.06 97.38 83.06 94.52 83.06 91.67 83.06 85.96 83.06 83.11 83.06 80.26 83.06 74.55 83.06 71.69 83.06 63.13 83.06 63.13 91.62 63.13 100.18 71.69 100.18 74.55 100.18 80.26 100.18 83.11 100.18 85.96 100.18 91.67 100.18 94.52 100.18 97.38 100.18 103.08 100.18 105.94 100.18 108.79 100.18 114.5 100.18 117.35 100.18 125.91 100.18 125.91 91.62 125.91 83.06 117.35 83.06 114.5 83.06"/>
  <polygon class="st0" points="85.96 105.88 85.96 114.45 85.96 117.3 85.96 123.01 85.96 125.86 85.96 128.71 85.96 134.42 85.96 137.27 85.96 145.83 94.52 145.83 103.08 145.83 103.08 137.27 103.08 134.42 103.08 128.71 103.08 125.86 103.08 123.01 103.08 117.3 103.08 114.45 103.08 105.88 94.52 105.88 85.96 105.88"/>
  <polygon class="st0" points="187.98 95.18 187.98 91.62 187.98 83.77 180.13 83.77 176.56 83.77 172.28 83.77 168.71 83.77 165.15 83.77 160.87 83.77 157.3 83.77 149.45 83.77 149.45 91.62 149.45 99.46 157.3 99.46 160.87 99.46 165.15 99.46 168.71 99.46 172.28 99.46 176.56 99.46 180.13 99.46 183.7 99.46 183.7 103.03 183.7 106.6 183.7 110.88 183.7 114.45 183.7 118.01 183.7 122.29 183.7 125.86 183.7 129.43 180.13 129.43 176.56 129.43 172.28 129.43 168.71 129.43 165.15 129.43 160.87 129.43 157.3 129.43 153.73 129.43 153.73 125.86 153.73 122.29 153.73 118.01 153.73 114.45 153.73 106.6 145.89 106.6 138.04 106.6 138.04 114.45 138.04 118.01 138.04 122.29 138.04 125.86 138.04 133.71 145.89 133.71 149.45 133.71 149.45 137.27 149.45 145.12 157.3 145.12 160.87 145.12 165.15 145.12 168.71 145.12 172.28 145.12 176.56 145.12 180.13 145.12 187.98 145.12 187.98 137.27 187.98 133.71 191.54 133.71 199.39 133.71 199.39 125.86 199.39 122.29 199.39 118.01 199.39 114.45 199.39 110.88 199.39 106.6 199.39 103.03 199.39 95.18 191.54 95.18 187.98 95.18"/>
  <polygon class="st0" points="268.27 130.85 268.27 125.86 268.27 120.87 268.27 119.44 268.27 114.45 268.27 108.03 261.85 108.03 256.86 108.03 255.43 108.03 250.44 108.03 245.45 108.03 244.02 108.03 239.02 108.03 234.03 108.03 234.03 103.03 234.03 98.04 239.02 98.04 244.02 98.04 245.45 98.04 250.44 98.04 255.43 98.04 256.86 98.04 261.85 98.04 268.27 98.04 268.27 91.62 268.27 85.2 261.85 85.2 256.86 85.2 255.43 85.2 250.44 85.2 245.45 85.2 244.02 85.2 239.02 85.2 234.03 85.2 232.6 85.2 227.61 85.2 221.19 85.2 221.19 91.62 221.19 96.61 221.19 98.04 221.19 103.03 221.19 108.03 221.19 109.45 221.19 114.45 221.19 119.44 221.19 120.87 221.19 125.86 221.19 130.85 221.19 132.28 221.19 137.27 221.19 143.69 227.61 143.69 234.03 143.69 234.03 137.27 234.03 132.28 234.03 130.85 234.03 125.86 234.03 120.87 239.02 120.87 244.02 120.87 245.45 120.87 250.44 120.87 255.43 120.87 255.43 125.86 255.43 130.85 255.43 132.28 255.43 137.27 255.43 143.69 261.85 143.69 266.85 143.69 268.27 143.69 273.27 143.69 279.69 143.69 279.69 137.27 279.69 130.85 273.27 130.85 268.27 130.85"/>
  <polygon class="st0" points="312.1 86.62 312.1 91.62 312.1 96.61 317.1 96.61 322.09 96.61 322.09 91.62 322.09 86.62 317.1 86.62 312.1 86.62"/>
  <polygon class="st0" points="300.69 132.28 300.69 137.27 300.69 142.27 305.68 142.27 310.68 142.27 310.68 137.27 310.68 132.28 305.68 132.28 300.69 132.28"/>
  <polygon class="st0" points="312.1 120.87 312.1 125.86 312.1 130.85 317.1 130.85 322.09 130.85 322.09 125.86 322.09 120.87 317.1 120.87 312.1 120.87"/>
  <polygon class="st0" points="323.52 132.28 323.52 137.27 323.52 142.27 328.51 142.27 333.5 142.27 333.5 137.27 333.5 132.28 328.51 132.28 323.52 132.28"/>
  <polygon class="st0" points="312.1 109.45 312.1 114.45 312.1 119.44 317.1 119.44 322.09 119.44 322.09 114.45 322.09 109.45 317.1 109.45 312.1 109.45"/>
  <polygon class="st0" points="312.1 132.28 312.1 137.27 312.1 142.27 317.1 142.27 322.09 142.27 322.09 137.27 322.09 132.28 317.1 132.28 312.1 132.28"/>
  <polygon class="st0" points="323.52 86.62 323.52 91.62 323.52 96.61 328.51 96.61 333.5 96.61 333.5 91.62 333.5 86.62 328.51 86.62 323.52 86.62"/>
  <polygon class="st0" points="300.69 86.62 300.69 91.62 300.69 96.61 305.68 96.61 310.68 96.61 310.68 91.62 310.68 86.62 305.68 86.62 300.69 86.62"/>
  <polygon class="st0" points="370.6 88.05 370.6 91.62 370.6 95.18 374.17 95.18 377.73 95.18 377.73 91.62 377.73 88.05 374.17 88.05 370.6 88.05"/>
  <polygon class="st0" points="370.6 110.88 370.6 114.45 370.6 118.01 374.17 118.01 377.73 118.01 377.73 114.45 377.73 110.88 374.17 110.88 370.6 110.88"/>
  <polygon class="st0" points="359.19 88.05 359.19 91.62 359.19 95.18 362.75 95.18 366.32 95.18 366.32 91.62 366.32 88.05 362.75 88.05 359.19 88.05"/>
  <polygon class="st0" points="359.19 133.71 359.19 137.27 359.19 140.84 362.75 140.84 366.32 140.84 366.32 137.27 366.32 133.71 362.75 133.71 359.19 133.71"/>
  <polygon class="st0" points="370.6 133.71 370.6 137.27 370.6 140.84 374.17 140.84 377.73 140.84 377.73 137.27 377.73 133.71 374.17 133.71 370.6 133.71"/>
  <polygon class="st0" points="393.43 110.88 393.43 114.45 393.43 118.01 397 118.01 400.56 118.01 400.56 114.45 400.56 110.88 397 110.88 393.43 110.88"/>
  <polygon class="st0" points="393.43 88.05 393.43 91.62 393.43 95.18 397 95.18 400.56 95.18 400.56 91.62 400.56 88.05 397 88.05 393.43 88.05"/>
  <polygon class="st0" points="393.43 133.71 393.43 137.27 393.43 140.84 397 140.84 400.56 140.84 400.56 137.27 400.56 133.71 397 133.71 393.43 133.71"/>
  <polygon class="st0" points="382.01 110.88 382.01 114.45 382.01 118.01 385.58 118.01 389.15 118.01 389.15 114.45 389.15 110.88 385.58 110.88 382.01 110.88"/>
  <polygon class="st0" points="382.01 133.71 382.01 137.27 382.01 140.84 385.58 140.84 389.15 140.84 389.15 137.27 389.15 133.71 385.58 133.71 382.01 133.71"/>
  <polygon class="st0" points="382.01 88.05 382.01 91.62 382.01 95.18 385.58 95.18 389.15 95.18 389.15 91.62 389.15 88.05 385.58 88.05 382.01 88.05"/>
  <polygon class="st0" points="359.19 110.88 359.19 114.45 359.19 118.01 362.75 118.01 366.32 118.01 366.32 114.45 366.32 110.88 362.75 110.88 359.19 110.88"/>
  <polygon class="st0" points="436.5 134.78 436.5 137.27 436.5 139.77 439 139.77 441.5 139.77 441.5 137.27 441.5 134.78 439 134.78 436.5 134.78"/>
  <polygon class="st0" points="436.5 111.95 436.5 114.45 436.5 116.94 439 116.94 441.5 116.94 441.5 114.45 441.5 111.95 439 111.95 436.5 111.95"/>
  <polygon class="st0" points="447.92 134.78 447.92 137.27 447.92 139.77 450.41 139.77 452.91 139.77 452.91 137.27 452.91 134.78 450.41 134.78 447.92 134.78"/>
  <polygon class="st0" points="436.5 89.12 436.5 91.62 436.5 94.11 439 94.11 441.5 94.11 441.5 91.62 441.5 89.12 439 89.12 436.5 89.12"/>
  <polygon class="st0" points="425.09 111.95 425.09 114.45 425.09 116.94 427.58 116.94 430.08 116.94 430.08 114.45 430.08 111.95 427.58 111.95 425.09 111.95"/>
  <polygon class="st0" points="425.09 100.53 425.09 103.03 425.09 105.53 427.58 105.53 430.08 105.53 430.08 103.03 430.08 100.53 427.58 100.53 425.09 100.53"/>
  <polygon class="st0" points="425.09 89.12 425.09 91.62 425.09 94.11 427.58 94.11 430.08 94.11 430.08 91.62 430.08 89.12 427.58 89.12 425.09 89.12"/>
  <polygon class="st0" points="425.09 134.78 425.09 137.27 425.09 139.77 427.58 139.77 430.08 139.77 430.08 137.27 430.08 134.78 427.58 134.78 425.09 134.78"/>
  <polygon class="st0" points="447.92 111.95 447.92 114.45 447.92 116.94 450.41 116.94 452.91 116.94 452.91 114.45 452.91 111.95 450.41 111.95 447.92 111.95"/>
  <polygon class="st0" points="459.33 89.12 459.33 91.62 459.33 94.11 461.83 94.11 464.32 94.11 464.32 91.62 464.32 89.12 461.83 89.12 459.33 89.12"/>
  <polygon class="st0" points="459.33 123.36 459.33 125.86 459.33 128.36 461.83 128.36 464.32 128.36 464.32 125.86 464.32 123.36 461.83 123.36 459.33 123.36"/>
  <polygon class="st0" points="459.33 111.95 459.33 114.45 459.33 116.94 461.83 116.94 464.32 116.94 464.32 114.45 464.32 111.95 461.83 111.95 459.33 111.95"/>
  <polygon class="st0" points="447.92 89.12 447.92 91.62 447.92 94.11 450.41 94.11 452.91 94.11 452.91 91.62 452.91 89.12 450.41 89.12 447.92 89.12"/>
  <polygon class="st0" points="459.33 134.78 459.33 137.27 459.33 139.77 461.83 139.77 464.32 139.77 464.32 137.27 464.32 134.78 461.83 134.78 459.33 134.78"/>
</svg>