<?xml version="1.0" encoding="UTF-8"?>
<svg id="Layer_1" xmlns="http://www.w3.org/2000/svg" version="1.1" viewBox="0 0 216.22 113.38">
  <!-- Generator: Adobe Illustrator 29.5.0, SVG Export Plug-In . SVG Version: 2.1.0 Build 137)  -->
<g stroke="#ffffff" fill="#ffffff">
  <path d="M60.04,28c-10.17-7.1-17.01-20.67-28.75-6.7-14,16.65-28.61,73.58,6.06,76.48l9.27-2.93c-9.46,9.13-28.4,1.45-34.02-8.82-8.34-15.22,2.14-48.54,11.76-62.06,11.27-15.83,23.46-11.26,34.42,1.8.6.72,1.55,1.04,1.27,2.24Z"/>
  <path d="M199.47,65.75l12.79-1.91c-.28,1.08-2.73,1.48-3.7,1.73-1.43.37-9.05,1.38-9.13,1.83.16,7.47-.78,16.92,4.93,22.55,2.54.54,3.87-5.3,5.98-6.29,1.03,8.47-8.16,10.58-12.78,4.8-.84-1.05-1.82-4.59-2.87-4.15s-3.71,4.09-5.13,5.11c-6.11,4.41-17.99,3.76-18.28-5.43-.16-4.87,3.74-18.07,10.29-16.64-3.77,3.64-6.52,22.55-.22,23.19,4.98-.83,8.36-5.19,12.43-7.79l.6-1.33c-1.05-8.79-1.17-19.26.81-27.96.87-3.82,2.59-9.41,7.5-8.81-.57,1.08-1.09,2.15-1.46,3.33-.5,1.62-1.74,6.47-1.74,7.85v9.92Z"/>
  <path d="M76.04,67.03c-1.69,2.01-3.2,4.24-3.19,7.03,13.26-4.14,22.72,6.43,13.06,17.86-4.86,5.75-17.67,5.94-19.41-2.23-.29-1.38.1-6.33-.09-6.6-.31-.43-3.2-.38-3.19-2.31s3.33-3.07,4.15-4.21c2.34-3.26,1.75-10.72,8.68-9.55ZM72.37,76.78c-1.86,1.95-2.12,22.51,6.24,16.16,7.25-5.5,8.84-20.19-1.97-17.96-.74.15-3.88,1.38-4.28,1.8Z"/>
  <path d="M136.15,63.83c-.49,9.77.87,19.5,3.83,28.79-1.01,1.25-7.25-8.95-6.4-10.87-11.96,16.96-19.4.84-23.06-11.48-1.75-1.14-4.12,4.06-4.89,5.59-1.09,2.18-3.8,11.1-5.08,11.54-7.37,2.57-8.23-11.97-7.61-16.56.64-.93,3.28-.94,3.91.02-.46,3.1.32,7.22,1.25,10.25.19.61.11,1.46.94,1.27,1.56-5.29,6.87-18.77,14.32-13.35,3.66,2.66,5.69,17.03,10.01,18.81,2.23.92,9.34-5.33,9.57-7.75.38-4-2.63-11.11-1.24-15.86l-6.28-1.51-.79-1.44c3.46-.94,4.29,1.4,7.03,1.28-.73-3.26,2.6-23.78,4.91-24.34l4.7.99v1.6s-1.61-.45-1.61-.45c-1.15.22-2.58,9.34-2.79,11.08-.23,1.9-.91,8.01-.78,9.52.08.95.14,1.67,1.02,2.23h15.03v.64h-15.99Z"/>
  <path d="M161.74,62.55c-3.25,6.06-4.89,12.93-4.47,19.82,4.87-4.74-2.24-19.3,8.95-15.98-1.07,5.8-2.13,13.62-1.24,19.46.41,2.65,1.34,3.26,3.79,2.29-1.09,2.54-4.77,1.91-6.57.66-1.04-.72-1.49-2.93-1.82-3.18-.3-.22-4.96,1.92-7-.96-1.67-2.36-.21-10.5.72-13.44.93-2.92,2.96-5,3.79-7.08.83-2.08-4.28.07-4.47-1.58h8.31Z"/>
</g>
</svg>