<?xml version="1.0" encoding="UTF-8"?>
<svg id="Layer_1" xmlns="http://www.w3.org/2000/svg" version="1.1" viewBox="0 0 300.54 113.38">
  <!-- Generator: Adobe Illustrator 29.5.0, SVG Export Plug-In . SVG Version: 2.1.0 Build 137)  -->
<g stroke="#ffffff" fill="#ffffff">
  <path d="M260.91,30.26l10.74-1.12-10.77,2.63c-.6,8.35-1.85,17.7.88,25.69l1.97-.03-.25,1.73-.69.45c-5.64,1.35-7.67-4.58-8.4-8.96-6.67,11.78-17.25,16.7-20.37-.57-2.43,4.23-3.26,12.14-9.94,10.51-4.8-1.17-4.11-12.78-5.34-12.78-3.39,7.81-7.81,16.66-17.95,14-3.5-.92-6.06-3.49-7.26-6.88-.54-1.52-.69-4.96-1.25-5.82-.37-.57-2.2-.87-2.59-2.26-.85-3.04,2.8-2.63,3.24-3.91.28-.84-.01-2.14.22-3.17,1.29-5.64,3.59-15.72,11.34-13.89,4.72,1.12,4.31,12.83,3.08,16.42-1.34,3.92-5.73,7.65-10.03,7.23-.18,6.42,3.82,15.63,10.77,8.79,5.66-5.57,7.85-15.17,10.48-22.41l3.84.11.85.85c-.11,6.6,1.31,13,2.35,19.45,1.3.26.91-.14,1.27-.72,2.77-4.41,4.71-12.79,5.52-17.95l5.03.06,4.61,21.99c2.03,1.43,11.22-9.39,11.73-11.7.59-2.64.03-7.15.1-10.09.05-2.01,1.87-5.4-.54-6.2,2.49-2.62,2.23-7.81,3.1-11.61.76-3.3,1.66-10.66,6.36-7.1l-2.11,17.29ZM203.19,28c-1.43-1.1-3.86,5.57-4.11,6.35-1.49,4.54-1.75,9.28-2.1,14.02,8.48-1.83,9.35-13.55,6.21-20.37Z"/>
  <path d="M83.63,39.49c.96,1.07,1.9,5.02,2.19,6.58,1.86,9.88,1.09,22.3-8.71,27.57-.41,4.39,1.79,29.44-.23,31.18-1.63.48-3.84,1.37-5.25.14-.89-1.18-1.85-14.17-1.99-16.68-.28-4.86,1.14-11.19-1.1-15.31l1.12-.27.54-28.52c.3-1.05,3.24-.13,3.98-.6,1.14-.73,1.6-4.62,3.81-5.28,1.69-.51,4.44-.15,5.65,1.19ZM77.03,69.88c7.42-7.21,5.3-19.71,3.38-28.86-1.2.43-1.49,1.9-1.85,2.96-2.69,7.99-1.1,17.59-1.54,25.91Z"/>
  <path d="M185.66,62.51c-1.41.48-2.63.56-3.93-.31-4.86-3.23-3.56-25.24-5.98-26.28-4.58,6.65-6.49,14.55-9.42,21.97-1.19.28-3.77.19-4.48-.86-1.55-2.32-2.1-9.61-2.96-12.74-.16-.58-.14-1.71-.95-1.58l-2.35,17.75c-.44,1.4-3.11.95-4.39.86-.85-3.4-4.58-20.63-3.2-22.61l2.55-.51,2.28,9.03c-.41-3.98,3.01-13.83,8.49-9.89,1.5,1.08,2.86,11.2,3.41,13.58.2.87-.38.99,1.12.85.79-4.02,5.09-16.55,8.72-18.17,5.74-2.57,6.55,3.86,7.43,7.96,1.5,6.91,1.39,14.21,3.66,20.95Z"/>
  <path d="M97.39,59.13c3.35,11.42,13.35,4.37,20.28,1.03.52-5.86-.78-13.13,1.4-18.69s7.66-2.49,6.61-1.02l-1.98-.57c-2.41,9.02.33,18.59.29,27.74l-4.87-.51-.8-4.58c-3.26.85-6.09,3.3-9.47,3.82-3.86.6-9.75.46-12.89-2.12-1.57-1.29-2.52-4.41-3.11-4.81-.66-.45-2.1-.18-2.58-.81-1.87-2.43,2.19-2.84,2.52-3.8.42-1.22.38-3.93.93-5.86,1.58-5.61,5.07-12.56,12.07-10.38,1.87.58,3.53,2.67,3.92,4.56,1.56,7.51-5.53,14.36-12.31,16.01ZM96.83,57.42c.81.93,6.35-4.15,7.03-5.13,4.71-6.71.78-19.16-4.48-7.31-1.72,3.88-2.39,8.21-2.55,12.44Z"/>
  <path d="M41.38,63.65l-7.05,1.16-22.94-.03v2.83c-1.31,1.34-3.57-3.25-3.68-4.23-.08-.66.41-1.53.33-2.26-1.75-15.38-.51-32.11.4-47.58l-2.14-1.1c2.7-.43,1.73-1.32,2.4-2.7.62-1.28,2.33-1.46,3.01-.43.58.88-.23,2.88,1.18,3.34l21.71,1.21c.13.99-1.28.53-1.97.56-6.87.28-13.84.05-20.66-.57l-.57,22.08,19.25,1.41-19.24-.28c-.84.9-.88,22.19-.59,24.65.1.82.07,1.46.88,1.95h29.7Z"/>
  <path d="M281.28,36.49c-1.73,2.75-3.06,4.12-2.87,7.65.4,7.63,12.89,10.61,13.12,15.27s-6.66,7.99-10.53,8.09c-5.78.15-.16-3.02.85-4.13,7.25-7.99-2-8.62-5.9-14.47-3.45-5.18-.46-11.21,5.34-12.41Z"/>
  <path d="M61.18,41.58l-10.19,15.57,7.93,9.89c-.76.68-8.99-5.54-9.9-6.78-.63.01-5.59,9.73-8.77,8.47l6.21-10.48c-1.77-3.17-5.68-5.26-5.65-9.32,2.95-2.2,6.61,6.24,7.64,6.21,2.32-2.11,8.71-16.47,12.73-13.57Z"/>
  <path d="M138.69,55.16c.31,3.83-1.6,8.39.13,12.06.51,1.08,2.15.71,1.57,2.65-7.11,1.07-7.22-6.9-5.2-11.71.66-1.57,1.5-3.33,3.5-3Z"/>
  <path d="M135.3,31.95c-2.42-.39-6.42-.51-5.6-3.91l4.73-1.18.58,1.1c-1.9,1.62.1,2.26.29,3.98Z"/>
</g>
</svg>