<?xml version="1.0" encoding="UTF-8"?>
<svg id="Layer_1" xmlns="http://www.w3.org/2000/svg" version="1.1" viewBox="0 0 472.84 113.38">
  <!-- Generator: Adobe Illustrator 29.5.0, SVG Export Plug-In . SVG Version: 2.1.0 Build 137)  -->
<g stroke="#ffffff" fill="#ffffff">
  <path d="M68.4,59.19c7-.84,13.93-3.13,21.11-2.04,8.53,1.3,6.49,13.92,6.28,20.07,5.12-2.72,1.71-18.43,6.94-19.42,9.39-1.78,2.94,6.71,2.43,11.44-.51,4.7.44,12.26,6.06,13.41,3.3.68,4.26-1.87,7.12-1.62-5.1,5.11-13.81,2.29-17.68-3.11-3.21,3.29-5.13,6.48-10.35,4.23-1.48-5.9,3.48-18.19-1.41-23-3.26-3.2-15.35,1.53-19.72,2.18-.46,11.71,2.94,22.93,5.63,34.12.13.53,1.27,1.77-.48,1.18-7.96-2.69-11.05-26.45-11.45-33.99-.38-.4-5.3.85-6.24-1.04l5.59-2.13-.43-30.86,4.11-.56,1.04,1.04,1.48,30.08Z"/>
  <path d="M145.39,85.55l2.76-2.08-.64,3.16c-6.35,2.22-8.75-4.69-10.46-9.4-1.13-.83-3.4,3.64-4.9,4.45-2.25,1.21-6.27.98-8.25-.66-5.38-4.45.96-23.38,8.33-25.07-.77-10.94-1.46-22.8.16-33.69.16-1.09.52-3.58,1.64-3.95,4.06-.26,4.15,1.54,4.9,4.68,2.45,10.33,3.71,25.29,2.98,35.85-.21,3.01-1.68,6.61-1.67,9.46.01,5.61,3.38,12.02,5.16,17.25ZM139.13,55.02c.04-4.93-.07-10.02-.69-14.9-.13-1.05-.29-4.14-1.37-4.51l.69,13.52,1.37,5.9ZM132.89,59.19c-3.33,2.29-4.2,7.69-4.87,11.49-.57,3.23-1.69,7.42,1.06,10l5.76-8.12-1.95-13.37Z"/>
  <path d="M57.99,38.37c-1.1.97-13.1-5.35-15.59-6.25-7.83-2.84-17.82-6.14-24.31,1.38-10.31,11.95,10.73,14.4,18.65,18.16,9.48,4.5,20.31,12.82,20.29,24.41-.03,19.42-25.49,23.72-39.94,16.75-10.72-5.17-8.26-11.38,2.07-14.2-8.85,6.23-4.14,10.68,3.69,13.99,19.19,8.11,38.29-11.28,23.93-29.49-4.72-5.99-12.38-9.77-19.31-12.59-7.41-3.02-27.1-5.75-17-17.72,8.72-10.34,29.33-5.17,39.88-.3.78.36,9.28,4.42,7.65,5.87Z"/>
  <path d="M227.21,26.59c1.41-3.63-1.33-13.43,4.69-10.58,3.15,1.49-.12,6.77.86,9.89,12.02-.46,24.08-1.46,36.06,0,.16,1.21-1.57.65-2.42.69l-33.64,1.39-1.75,36.07c.7,1.03.96.52,1.78.39,7.24-1.12,15.98-6.31,23.55-7.32-7.03,5.73-16.83,7.95-25.59,9.77-.55.64.46,14.81.71,16.84.62,4.9,2.25,8.81,3.31,13.35.24,1.02.04,1.17-.98.98-6.64-1.24-8.58-25.51-7.96-31.23-1.65.15-6.17-.14-6.94-1.73-.73-1.51.35-2.08,1.76-1.76,1.77.41,1.75,3.31,5.18,2.11l1.31-36.32c-.81-2.47-10.99.56-12.41-2.53h12.48Z"/>
  <path d="M424.35,74.63c-1.97,2.39-1.37,13.16-.4,16.34,3.23,10.53,12.91-3.35,18.25-5.42-8.45,21.63-33.72,12.78-26.99-10-.28-1.06-4.3-.12-3.52-2.49,5.96.16,4.81-2.5,7.34-6.19,4.12-6,9.3-10.4,16.15-5.14.98,3.02-3.08,8.51-5.5,10.24-1.26.9-4.85,2.08-5.32,2.65Z"/>
  <path d="M375.51,38.51l.81,26.24,15.95-2.77c-1.41,3.43-14.85,3.91-15.33,4.57-.3,7.13-.05,14.68,1.47,21.79l4.15-5.55c.2,1.35-.69,8.76-1.84,9.04-10.56,2.58-10.84-19.59-10.59-25.96l-2.81-1.46c.51-.82,1.99-1.05,2.41-1.74,1-1.61.12-13.19.32-16.33.26-4.1-.01-11.15,5.46-7.82Z"/>
  <path d="M283.22,64.21c3.32,3.34-2.57,15.04-5.15,18.22,0,1.08,2,3.22,2.98,3.73,1.68.87,3.71.26,4.42,1.47-3.52,1.53-8.01-2.45-10.17-2.65-.84-.07-2.58,1.7-4.71,1.97-11.87,1.51-10.94-8.2-8.19-16.51,1.35-4.06,4.45-9.22,9.42-7.65,1.01.32,1.64,1.76,2.31,1.88.51.09,6.43-3.15,9.1-.46ZM274.37,65.44l-4.1-1.36c-2.8,2.95-6.74,20.44-2.41,21.42l5.06-3.2c-1.5-6.02-1.75-11.3,1.46-16.86ZM278.53,73.06l.69-4.15c-.44-.96-1.91,3.01-1.37,4.15h.68Z"/>
  <path d="M175.2,61.97l-4.16,1.04c4.57-4.88,16.66-6.43,19.09,1.02,2.54,7.78-.86,25.2-11.61,24.15-12.47-1.22-8.45-19.26-3.32-26.2ZM178.68,85.55c7.68-1.34,11.16-25.87,3.08-25.67-2.14.05-4.85,8.07-5.09,10.14-.63,5.27-.22,10.72,2.01,15.53Z"/>
  <path d="M462.32,61.28c-3.79,4.09-10.87,11.52-7.25,17.3,2.14,3.42,10.21,5.68,10.63,6.36,2.9,4.65-12.99,8.94-16.21,8.99-2.06.04-3.87-.77-5.89-.75-.27-1.92.22-1.06,1.03-1.39,3.01-1.21,10.11-3.35,11.44-6.6.48-1.17-.46-.93-.88-1.18-3.97-2.34-9.95-4.06-9.56-9.89s10.68-14.26,16.69-12.84Z"/>
  <path d="M340.11,36.45c3.81,18.2,1.47,37.42,6.4,55.34l4.15-2.77c-1.11,6-5.76,4.95-8.46.49-1.88-3.11-2.71-8.39-3.24-12.02-1.95-13.36-1.63-27.45-3.38-40.87.27-1.64,3.51-.97,4.53-.16Z"/>
  <path d="M306.96,60.58l-3.48.27c-3.01,4.86-5.98,21.46.04,24.38,1.82.88,8.12-4.15,9.7-5.58,3.48-3.14,5.24-8.35,10.4-7.3-.05,5.5-.7,12.31,4.16,15.95-5.85,1.32-8.61-5.63-8.33-10.39-.59-.69-7.97,6.72-9.47,7.52-6,3.19-13.76.9-15.19-6.09-1.33-6.53,1.97-25.35,12.17-18.76Z"/>
  <path d="M404.47,68.27c.96-.32,2,.07,2.28,1.09.3,1.11-.72,11.82-.64,14.49s2.31,5.89-1.69,5.92c-1.2,0-3.3-.66-3.72-1.9-.97-2.9.57-18.62,3.77-19.59Z"/>
  <path d="M155.09,61.28c-1.97,8.11.17,16.95,2.07,24.97-5.64-4.29-7.39-15.72-5.89-22.21.53-2.32,1.36-3.28,3.82-2.75Z"/>
  <path d="M361.75,73.76c-.81,3.11-2.2,12.22,2.77,10.4-.08,3.47-4.83,1.96-6.6.71-4.73-3.37-2.52-11.92,3.82-11.11Z"/>
  <path d="M164.79,39.08c-2.59,4.01-5.92,2.23-9.71,1.37.87-2.2,8.89-2.45,9.71-1.37Z"/>
  <path d="M417.93,41.85c-1.1,2.55-5.85,1.27-6.93-.69l6.93.69Z"/>
  <path d="M317.38,55.73l-.7,1.38,2.78.69-6.93-.69c.02-1.42,4.5-1.62,4.86-1.37Z"/>
  <path d="M361.06,45.32v.68c-1.45.53-2.68.24-4.15,0v-.68s4.15,0,4.15,0Z"/>
</g>
</svg>