<?xml version="1.0" encoding="UTF-8"?>
<svg id="Layer_1" xmlns="http://www.w3.org/2000/svg" version="1.1" viewBox="0 0 842.33 63.49">
  <!-- Generator: Adobe Illustrator 29.5.0, SVG Export Plug-In . SVG Version: 2.1.0 Build 137)  -->
  <polygon points="22.83 29.25 22.83 31.75 22.83 34.24 25.33 34.24 27.82 34.24 27.82 31.75 27.82 29.25 25.33 29.25 22.83 29.25"/>
  <polygon points="22.83 6.42 22.83 8.92 22.83 11.41 25.33 11.41 27.82 11.41 27.82 8.92 27.82 6.42 25.33 6.42 22.83 6.42"/>
  <polygon points="34.24 52.08 34.24 54.57 34.24 57.07 36.74 57.07 39.24 57.07 39.24 54.57 39.24 52.08 36.74 52.08 34.24 52.08"/>
  <polygon points="34.24 40.66 34.24 43.16 34.24 45.66 36.74 45.66 39.24 45.66 39.24 43.16 39.24 40.66 36.74 40.66 34.24 40.66"/>
  <polygon points="34.24 6.42 34.24 8.92 34.24 11.41 36.74 11.41 39.24 11.41 39.24 8.92 39.24 6.42 36.74 6.42 34.24 6.42"/>
  <polygon points="22.83 52.08 22.83 54.57 22.83 57.07 25.33 57.07 27.82 57.07 27.82 54.57 27.82 52.08 25.33 52.08 22.83 52.08"/>
  <polygon points="34.24 29.25 34.24 31.75 34.24 34.24 36.74 34.24 39.24 34.24 39.24 31.75 39.24 29.25 36.74 29.25 34.24 29.25"/>
  <polygon points="11.41 29.25 11.41 31.75 11.41 34.24 13.91 34.24 16.41 34.24 16.41 31.75 16.41 29.25 13.91 29.25 11.41 29.25"/>
  <polygon points="0 29.25 0 31.75 0 34.24 2.5 34.24 4.99 34.24 4.99 31.75 4.99 29.25 2.5 29.25 0 29.25"/>
  <polygon points="0 52.08 0 54.57 0 57.07 2.5 57.07 4.99 57.07 4.99 54.57 4.99 52.08 2.5 52.08 0 52.08"/>
  <polygon points="11.41 6.42 11.41 8.92 11.41 11.41 13.91 11.41 16.41 11.41 16.41 8.92 16.41 6.42 13.91 6.42 11.41 6.42"/>
  <polygon points="0 17.83 0 20.33 0 22.83 2.5 22.83 4.99 22.83 4.99 20.33 4.99 17.83 2.5 17.83 0 17.83"/>
  <polygon points="11.41 52.08 11.41 54.57 11.41 57.07 13.91 57.07 16.41 57.07 16.41 54.57 16.41 52.08 13.91 52.08 11.41 52.08"/>
  <polygon points="0 6.42 0 8.92 0 11.41 2.5 11.41 4.99 11.41 4.99 8.92 4.99 6.42 2.5 6.42 0 6.42"/>
  <polygon points="97.65 4.99 97.65 8.92 97.65 12.84 101.57 12.84 105.49 12.84 105.49 8.92 105.49 4.99 101.57 4.99 97.65 4.99"/>
  <polygon points="97.65 50.65 97.65 54.57 97.65 58.5 101.57 58.5 105.49 58.5 105.49 54.57 105.49 50.65 101.57 50.65 97.65 50.65"/>
  <polygon points="109.06 16.41 109.06 20.33 109.06 24.25 112.99 24.25 116.91 24.25 116.91 20.33 116.91 16.41 112.99 16.41 109.06 16.41"/>
  <polygon points="86.23 4.99 86.23 8.92 86.23 12.84 90.16 12.84 94.08 12.84 94.08 8.92 94.08 4.99 90.16 4.99 86.23 4.99"/>
  <polygon points="109.06 39.24 109.06 43.16 109.06 47.08 112.99 47.08 116.91 47.08 116.91 43.16 116.91 39.24 112.99 39.24 109.06 39.24"/>
  <polygon points="74.82 4.99 74.82 8.92 74.82 12.84 78.74 12.84 82.67 12.84 82.67 8.92 82.67 4.99 78.74 4.99 74.82 4.99"/>
  <polygon points="63.41 27.82 63.41 31.75 63.41 35.67 67.33 35.67 71.25 35.67 71.25 31.75 71.25 27.82 67.33 27.82 63.41 27.82"/>
  <polygon points="63.41 39.24 63.41 43.16 63.41 47.08 67.33 47.08 71.25 47.08 71.25 43.16 71.25 39.24 67.33 39.24 63.41 39.24"/>
  <polygon points="86.23 50.65 86.23 54.57 86.23 58.5 90.16 58.5 94.08 58.5 94.08 54.57 94.08 50.65 90.16 50.65 86.23 50.65"/>
  <polygon points="74.82 50.65 74.82 54.57 74.82 58.5 78.74 58.5 82.67 58.5 82.67 54.57 82.67 50.65 78.74 50.65 74.82 50.65"/>
  <polygon points="109.06 27.82 109.06 31.75 109.06 35.67 112.99 35.67 116.91 35.67 116.91 31.75 116.91 27.82 112.99 27.82 109.06 27.82"/>
  <polygon points="165.42 49.94 165.42 54.57 165.42 59.21 170.06 59.21 174.69 59.21 174.69 54.57 174.69 49.94 170.06 49.94 165.42 49.94"/>
  <polygon points="176.83 49.94 176.83 54.57 176.83 59.21 181.47 59.21 186.11 59.21 186.11 54.57 186.11 49.94 181.47 49.94 176.83 49.94"/>
  <polygon points="188.25 27.11 188.25 31.75 188.25 36.38 192.88 36.38 197.52 36.38 197.52 31.75 197.52 27.11 192.88 27.11 188.25 27.11"/>
  <polygon points="188.25 4.28 188.25 8.92 188.25 13.55 192.88 13.55 197.52 13.55 197.52 8.92 197.52 4.28 192.88 4.28 188.25 4.28"/>
  <polygon points="154 49.94 154 54.57 154 59.21 158.64 59.21 163.28 59.21 163.28 54.57 163.28 49.94 158.64 49.94 154 49.94"/>
  <polygon points="188.25 15.69 188.25 20.33 188.25 24.97 192.88 24.97 197.52 24.97 197.52 20.33 197.52 15.69 192.88 15.69 188.25 15.69"/>
  <polygon points="142.59 27.11 142.59 31.75 142.59 36.38 147.23 36.38 151.86 36.38 151.86 31.75 151.86 27.11 147.23 27.11 142.59 27.11"/>
  <polygon points="142.59 38.52 142.59 43.16 142.59 47.8 147.23 47.8 151.86 47.8 151.86 43.16 151.86 38.52 147.23 38.52 142.59 38.52"/>
  <polygon points="142.59 4.28 142.59 8.92 142.59 13.55 147.23 13.55 151.86 13.55 151.86 8.92 151.86 4.28 147.23 4.28 142.59 4.28"/>
  <polygon points="142.59 15.69 142.59 20.33 142.59 24.97 147.23 24.97 151.86 24.97 151.86 20.33 151.86 15.69 147.23 15.69 142.59 15.69"/>
  <polygon points="266 2.14 266 8.92 266 13.55 266 15.69 266 20.33 266 24.97 266 27.11 266 31.75 266 36.38 266 38.52 266 43.16 266 47.8 261.37 47.8 256.73 47.8 256.73 43.16 256.73 38.52 256.73 36.38 256.73 31.75 256.73 27.11 256.73 24.97 256.73 20.33 256.73 15.69 256.73 13.55 256.73 8.92 256.73 2.14 249.95 2.14 245.32 2.14 243.18 2.14 238.54 2.14 233.9 2.14 231.76 2.14 227.13 2.14 220.35 2.14 220.35 8.92 220.35 13.55 220.35 15.69 220.35 20.33 220.35 24.97 220.35 27.11 220.35 31.75 220.35 36.38 220.35 38.52 220.35 43.16 220.35 47.8 220.35 49.94 220.35 54.57 220.35 61.35 227.13 61.35 233.9 61.35 233.9 54.57 233.9 49.94 233.9 47.8 233.9 43.16 233.9 38.52 233.9 36.38 233.9 31.75 233.9 27.11 233.9 24.97 233.9 20.33 233.9 15.69 238.54 15.69 243.18 15.69 243.18 20.33 243.18 24.97 243.18 27.11 243.18 31.75 243.18 36.38 243.18 38.52 243.18 43.16 243.18 47.8 243.18 49.94 243.18 54.57 243.18 61.35 249.95 61.35 254.59 61.35 256.73 61.35 261.37 61.35 266 61.35 268.14 61.35 272.78 61.35 279.56 61.35 279.56 54.57 279.56 49.94 279.56 47.8 279.56 43.16 279.56 38.52 279.56 36.38 279.56 31.75 279.56 27.11 279.56 24.97 279.56 20.33 279.56 15.69 279.56 13.55 279.56 8.92 279.56 2.14 272.78 2.14 266 2.14"/>
  <polygon points="349.47 12.13 349.47 8.92 349.47 .71 341.27 .71 338.06 .71 333.06 .71 329.85 .71 326.64 .71 321.65 .71 318.44 .71 315.23 .71 310.23 .71 307.02 .71 298.82 .71 298.82 8.92 298.82 12.13 298.82 17.12 298.82 20.33 298.82 23.54 298.82 28.53 298.82 31.75 298.82 34.96 298.82 39.95 298.82 43.16 298.82 46.37 298.82 51.36 298.82 54.57 298.82 62.78 307.02 62.78 315.23 62.78 315.23 54.57 315.23 51.36 315.23 46.37 315.23 43.16 315.23 39.95 315.23 34.96 315.23 31.75 315.23 28.53 315.23 23.54 315.23 20.33 315.23 17.12 318.44 17.12 321.65 17.12 326.64 17.12 329.85 17.12 333.06 17.12 338.06 17.12 341.27 17.12 344.48 17.12 344.48 20.33 344.48 23.54 344.48 28.53 344.48 31.75 344.48 34.96 344.48 39.95 344.48 43.16 344.48 46.37 341.27 46.37 338.06 46.37 333.06 46.37 329.85 46.37 321.65 46.37 321.65 54.57 321.65 62.78 329.85 62.78 333.06 62.78 338.06 62.78 341.27 62.78 349.47 62.78 349.47 54.57 349.47 51.36 352.68 51.36 360.88 51.36 360.88 43.16 360.88 39.95 360.88 34.96 360.88 31.75 360.88 28.53 360.88 23.54 360.88 20.33 360.88 12.13 352.68 12.13 349.47 12.13"/>
  <polygon points="419.38 -.71 411.53 -.71 409.75 -.71 407.97 -.71 400.12 -.71 398.34 -.71 396.55 -.71 388.71 -.71 386.92 -.71 377.29 -.71 377.29 8.92 377.29 10.7 377.29 18.55 377.29 20.33 377.29 22.11 377.29 29.96 377.29 31.75 377.29 41.38 386.92 41.38 388.71 41.38 396.55 41.38 398.34 41.38 400.12 41.38 407.97 41.38 409.75 41.38 411.53 41.38 411.53 43.16 411.53 44.94 409.75 44.94 407.97 44.94 400.12 44.94 398.34 44.94 396.55 44.94 388.71 44.94 386.92 44.94 377.29 44.94 377.29 54.57 377.29 64.2 386.92 64.2 388.71 64.2 396.55 64.2 398.34 64.2 400.12 64.2 407.97 64.2 409.75 64.2 411.53 64.2 419.38 64.2 421.16 64.2 430.79 64.2 430.79 54.57 430.79 52.79 430.79 44.94 430.79 43.16 430.79 41.38 430.79 33.53 430.79 31.75 430.79 22.11 421.16 22.11 419.38 22.11 411.53 22.11 409.75 22.11 407.97 22.11 400.12 22.11 398.34 22.11 396.55 22.11 396.55 20.33 396.55 18.55 398.34 18.55 400.12 18.55 407.97 18.55 409.75 18.55 411.53 18.55 419.38 18.55 421.16 18.55 430.79 18.55 430.79 8.92 430.79 -.71 421.16 -.71 419.38 -.71"/>
  <polygon points="463.61 22.83 463.61 31.75 463.61 34.24 463.61 40.66 463.61 43.16 463.61 45.66 463.61 52.08 463.61 54.57 463.61 63.49 472.53 63.49 481.44 63.49 481.44 54.57 481.44 52.08 481.44 45.66 481.44 43.16 481.44 40.66 481.44 34.24 481.44 31.75 481.44 22.83 472.53 22.83 463.61 22.83"/>
  <polygon points="492.86 0 486.44 0 483.94 0 481.44 0 475.02 0 472.53 0 470.03 0 463.61 0 461.11 0 458.62 0 452.2 0 449.7 0 440.78 0 440.78 8.92 440.78 17.83 449.7 17.83 452.2 17.83 458.62 17.83 461.11 17.83 463.61 17.83 470.03 17.83 472.53 17.83 475.02 17.83 481.44 17.83 483.94 17.83 486.44 17.83 492.86 17.83 495.36 17.83 504.27 17.83 504.27 8.92 504.27 0 495.36 0 492.86 0"/>
  <polygon points="566.34 12.13 566.34 8.92 566.34 .71 558.13 .71 554.92 .71 549.93 .71 546.72 .71 543.51 .71 538.52 .71 535.3 .71 527.1 .71 527.1 8.92 527.1 17.12 535.3 17.12 538.52 17.12 543.51 17.12 546.72 17.12 549.93 17.12 554.92 17.12 558.13 17.12 561.34 17.12 561.34 20.33 561.34 23.54 561.34 28.53 561.34 31.75 561.34 34.96 561.34 39.95 561.34 43.16 561.34 46.37 558.13 46.37 554.92 46.37 549.93 46.37 546.72 46.37 543.51 46.37 538.52 46.37 535.3 46.37 532.09 46.37 532.09 43.16 532.09 39.95 532.09 34.96 532.09 31.75 532.09 23.54 523.89 23.54 515.69 23.54 515.69 31.75 515.69 34.96 515.69 39.95 515.69 43.16 515.69 51.36 523.89 51.36 527.1 51.36 527.1 54.57 527.1 62.78 535.3 62.78 538.52 62.78 543.51 62.78 546.72 62.78 549.93 62.78 554.92 62.78 558.13 62.78 566.34 62.78 566.34 54.57 566.34 51.36 569.55 51.36 577.75 51.36 577.75 43.16 577.75 39.95 577.75 34.96 577.75 31.75 577.75 28.53 577.75 23.54 577.75 20.33 577.75 12.13 569.55 12.13 566.34 12.13"/>
  <polygon points="646.63 47.8 646.63 43.16 646.63 38.52 646.63 36.38 646.63 31.75 646.63 24.97 639.86 24.97 635.22 24.97 633.08 24.97 628.44 24.97 623.81 24.97 621.67 24.97 617.03 24.97 612.39 24.97 612.39 20.33 612.39 15.69 617.03 15.69 621.67 15.69 623.81 15.69 628.44 15.69 633.08 15.69 635.22 15.69 639.86 15.69 646.63 15.69 646.63 8.92 646.63 2.14 639.86 2.14 635.22 2.14 633.08 2.14 628.44 2.14 623.81 2.14 621.67 2.14 617.03 2.14 612.39 2.14 610.25 2.14 605.62 2.14 598.84 2.14 598.84 8.92 598.84 13.55 598.84 15.69 598.84 20.33 598.84 24.97 598.84 27.11 598.84 31.75 598.84 36.38 598.84 38.52 598.84 43.16 598.84 47.8 598.84 49.94 598.84 54.57 598.84 61.35 605.62 61.35 612.39 61.35 612.39 54.57 612.39 49.94 612.39 47.8 612.39 43.16 612.39 38.52 617.03 38.52 621.67 38.52 623.81 38.52 628.44 38.52 633.08 38.52 633.08 43.16 633.08 47.8 633.08 49.94 633.08 54.57 633.08 61.35 639.86 61.35 644.49 61.35 646.63 61.35 651.27 61.35 658.05 61.35 658.05 54.57 658.05 47.8 651.27 47.8 646.63 47.8"/>
  <polygon points="679.05 49.94 679.05 54.57 679.05 59.21 683.69 59.21 688.32 59.21 688.32 54.57 688.32 49.94 683.69 49.94 679.05 49.94"/>
  <polygon points="690.46 4.28 690.46 8.92 690.46 13.55 695.1 13.55 699.74 13.55 699.74 8.92 699.74 4.28 695.1 4.28 690.46 4.28"/>
  <polygon points="701.88 4.28 701.88 8.92 701.88 13.55 706.52 13.55 711.15 13.55 711.15 8.92 711.15 4.28 706.52 4.28 701.88 4.28"/>
  <polygon points="690.46 27.11 690.46 31.75 690.46 36.38 695.1 36.38 699.74 36.38 699.74 31.75 699.74 27.11 695.1 27.11 690.46 27.11"/>
  <polygon points="701.88 49.94 701.88 54.57 701.88 59.21 706.52 59.21 711.15 59.21 711.15 54.57 711.15 49.94 706.52 49.94 701.88 49.94"/>
  <polygon points="690.46 38.52 690.46 43.16 690.46 47.8 695.1 47.8 699.74 47.8 699.74 43.16 699.74 38.52 695.1 38.52 690.46 38.52"/>
  <polygon points="679.05 4.28 679.05 8.92 679.05 13.55 683.69 13.55 688.32 13.55 688.32 8.92 688.32 4.28 683.69 4.28 679.05 4.28"/>
  <polygon points="690.46 49.94 690.46 54.57 690.46 59.21 695.1 59.21 699.74 59.21 699.74 54.57 699.74 49.94 695.1 49.94 690.46 49.94"/>
  <polygon points="759.66 4.99 759.66 8.92 759.66 12.84 763.59 12.84 767.51 12.84 767.51 8.92 767.51 4.99 763.59 4.99 759.66 4.99"/>
  <polygon points="771.08 50.65 771.08 54.57 771.08 58.5 775 58.5 778.92 58.5 778.92 54.57 778.92 50.65 775 50.65 771.08 50.65"/>
  <polygon points="759.66 50.65 759.66 54.57 759.66 58.5 763.59 58.5 767.51 58.5 767.51 54.57 767.51 50.65 763.59 50.65 759.66 50.65"/>
  <polygon points="771.08 27.82 771.08 31.75 771.08 35.67 775 35.67 778.92 35.67 778.92 31.75 778.92 27.82 775 27.82 771.08 27.82"/>
  <polygon points="736.83 50.65 736.83 54.57 736.83 58.5 740.76 58.5 744.68 58.5 744.68 54.57 744.68 50.65 740.76 50.65 736.83 50.65"/>
  <polygon points="771.08 4.99 771.08 8.92 771.08 12.84 775 12.84 778.92 12.84 778.92 8.92 778.92 4.99 775 4.99 771.08 4.99"/>
  <polygon points="759.66 27.82 759.66 31.75 759.66 35.67 763.59 35.67 767.51 35.67 767.51 31.75 767.51 27.82 763.59 27.82 759.66 27.82"/>
  <polygon points="736.83 27.82 736.83 31.75 736.83 35.67 740.76 35.67 744.68 35.67 744.68 31.75 744.68 27.82 740.76 27.82 736.83 27.82"/>
  <polygon points="748.25 4.99 748.25 8.92 748.25 12.84 752.17 12.84 756.1 12.84 756.1 8.92 756.1 4.99 752.17 4.99 748.25 4.99"/>
  <polygon points="736.83 4.99 736.83 8.92 736.83 12.84 740.76 12.84 744.68 12.84 744.68 8.92 744.68 4.99 740.76 4.99 736.83 4.99"/>
  <polygon points="748.25 27.82 748.25 31.75 748.25 35.67 752.17 35.67 756.1 35.67 756.1 31.75 756.1 27.82 752.17 27.82 748.25 27.82"/>
  <polygon points="748.25 50.65 748.25 54.57 748.25 58.5 752.17 58.5 756.1 58.5 756.1 54.57 756.1 50.65 752.17 50.65 748.25 50.65"/>
  <polygon points="837.33 52.08 837.33 54.57 837.33 57.07 839.83 57.07 842.33 57.07 842.33 54.57 842.33 52.08 839.83 52.08 837.33 52.08"/>
  <polygon points="825.92 6.42 825.92 8.92 825.92 11.41 828.42 11.41 830.91 11.41 830.91 8.92 830.91 6.42 828.42 6.42 825.92 6.42"/>
  <polygon points="837.33 40.66 837.33 43.16 837.33 45.66 839.83 45.66 842.33 45.66 842.33 43.16 842.33 40.66 839.83 40.66 837.33 40.66"/>
  <polygon points="825.92 29.25 825.92 31.75 825.92 34.24 828.42 34.24 830.91 34.24 830.91 31.75 830.91 29.25 828.42 29.25 825.92 29.25"/>
  <polygon points="839.83 6.42 837.33 6.42 837.33 8.92 837.33 11.41 839.83 11.41 842.33 11.41 842.33 8.92 842.33 6.42 839.83 6.42"/>
  <polygon points="837.33 29.25 837.33 31.75 837.33 34.24 839.83 34.24 842.33 34.24 842.33 31.75 842.33 29.25 839.83 29.25 837.33 29.25"/>
  <polygon points="825.92 52.08 825.92 54.57 825.92 57.07 828.42 57.07 830.91 57.07 830.91 54.57 830.91 52.08 828.42 52.08 825.92 52.08"/>
  <polygon points="803.09 17.83 803.09 20.33 803.09 22.83 805.59 22.83 808.09 22.83 808.09 20.33 808.09 17.83 805.59 17.83 803.09 17.83"/>
  <polygon points="803.09 6.42 803.09 8.92 803.09 11.41 805.59 11.41 808.09 11.41 808.09 8.92 808.09 6.42 805.59 6.42 803.09 6.42"/>
  <polygon points="803.09 29.25 803.09 31.75 803.09 34.24 805.59 34.24 808.09 34.24 808.09 31.75 808.09 29.25 805.59 29.25 803.09 29.25"/>
  <polygon points="814.51 6.42 814.51 8.92 814.51 11.41 817 11.41 819.5 11.41 819.5 8.92 819.5 6.42 817 6.42 814.51 6.42"/>
  <polygon points="803.09 52.08 803.09 54.57 803.09 57.07 805.59 57.07 808.09 57.07 808.09 54.57 808.09 52.08 805.59 52.08 803.09 52.08"/>
  <polygon points="814.51 29.25 814.51 31.75 814.51 34.24 817 34.24 819.5 34.24 819.5 31.75 819.5 29.25 817 29.25 814.51 29.25"/>
  <polygon points="814.51 52.08 814.51 54.57 814.51 57.07 817 57.07 819.5 57.07 819.5 54.57 819.5 52.08 817 52.08 814.51 52.08"/>
</svg>