<?xml version="1.0" encoding="UTF-8"?>
<svg id="Layer_1" xmlns="http://www.w3.org/2000/svg" version="1.1" viewBox="0 0 842.33 63.49">
  <!-- Generator: Adobe Illustrator 29.5.0, SVG Export Plug-In . SVG Version: 2.1.0 Build 137)  -->
  <defs>
    <style>
      .st0 {
        fill: #fff;
      }
    </style>
  </defs>
  <polygon class="st0" points="34.24 52.08 34.24 54.57 34.24 57.07 36.74 57.07 39.24 57.07 39.24 54.57 39.24 52.08 36.74 52.08 34.24 52.08"/>
  <polygon class="st0" points="22.83 6.42 22.83 8.92 22.83 11.41 25.33 11.41 27.82 11.41 27.82 8.92 27.82 6.42 25.33 6.42 22.83 6.42"/>
  <polygon class="st0" points="22.83 29.25 22.83 31.75 22.83 34.24 25.33 34.24 27.82 34.24 27.82 31.75 27.82 29.25 25.33 29.25 22.83 29.25"/>
  <polygon class="st0" points="34.24 29.25 34.24 31.75 34.24 34.24 36.74 34.24 39.24 34.24 39.24 31.75 39.24 29.25 36.74 29.25 34.24 29.25"/>
  <polygon class="st0" points="34.24 6.42 34.24 8.92 34.24 11.41 36.74 11.41 39.24 11.41 39.24 8.92 39.24 6.42 36.74 6.42 34.24 6.42"/>
  <polygon class="st0" points="22.83 52.08 22.83 54.57 22.83 57.07 25.33 57.07 27.82 57.07 27.82 54.57 27.82 52.08 25.33 52.08 22.83 52.08"/>
  <polygon class="st0" points="34.24 40.66 34.24 43.16 34.24 45.66 36.74 45.66 39.24 45.66 39.24 43.16 39.24 40.66 36.74 40.66 34.24 40.66"/>
  <polygon class="st0" points="11.41 29.25 11.41 31.75 11.41 34.24 13.91 34.24 16.41 34.24 16.41 31.75 16.41 29.25 13.91 29.25 11.41 29.25"/>
  <polygon class="st0" points="0 29.25 0 31.75 0 34.24 2.5 34.24 4.99 34.24 4.99 31.75 4.99 29.25 2.5 29.25 0 29.25"/>
  <polygon class="st0" points="0 52.08 0 54.57 0 57.07 2.5 57.07 4.99 57.07 4.99 54.57 4.99 52.08 2.5 52.08 0 52.08"/>
  <polygon class="st0" points="0 17.83 0 20.33 0 22.83 2.5 22.83 4.99 22.83 4.99 20.33 4.99 17.83 2.5 17.83 0 17.83"/>
  <polygon class="st0" points="0 6.42 0 8.92 0 11.41 2.5 11.41 4.99 11.41 4.99 8.92 4.99 6.42 2.5 6.42 0 6.42"/>
  <polygon class="st0" points="11.41 52.08 11.41 54.57 11.41 57.07 13.91 57.07 16.41 57.07 16.41 54.57 16.41 52.08 13.91 52.08 11.41 52.08"/>
  <polygon class="st0" points="11.41 6.42 11.41 8.92 11.41 11.41 13.91 11.41 16.41 11.41 16.41 8.92 16.41 6.42 13.91 6.42 11.41 6.42"/>
  <polygon class="st0" points="98 51.01 98 54.57 98 58.14 101.57 58.14 105.14 58.14 105.14 54.57 105.14 51.01 101.57 51.01 98 51.01"/>
  <polygon class="st0" points="98 5.35 98 8.92 98 12.48 101.57 12.48 105.14 12.48 105.14 8.92 105.14 5.35 101.57 5.35 98 5.35"/>
  <polygon class="st0" points="109.42 28.18 109.42 31.75 109.42 35.31 112.99 35.31 116.55 35.31 116.55 31.75 116.55 28.18 112.99 28.18 109.42 28.18"/>
  <polygon class="st0" points="109.42 16.76 109.42 20.33 109.42 23.9 112.99 23.9 116.55 23.9 116.55 20.33 116.55 16.76 112.99 16.76 109.42 16.76"/>
  <polygon class="st0" points="109.42 39.59 109.42 43.16 109.42 46.73 112.99 46.73 116.55 46.73 116.55 43.16 116.55 39.59 112.99 39.59 109.42 39.59"/>
  <polygon class="st0" points="63.76 28.18 63.76 31.75 63.76 35.31 67.33 35.31 70.9 35.31 70.9 31.75 70.9 28.18 67.33 28.18 63.76 28.18"/>
  <polygon class="st0" points="86.59 5.35 86.59 8.92 86.59 12.48 90.16 12.48 93.72 12.48 93.72 8.92 93.72 5.35 90.16 5.35 86.59 5.35"/>
  <polygon class="st0" points="63.76 39.59 63.76 43.16 63.76 46.73 67.33 46.73 70.9 46.73 70.9 43.16 70.9 39.59 67.33 39.59 63.76 39.59"/>
  <polygon class="st0" points="75.18 51.01 75.18 54.57 75.18 58.14 78.74 58.14 82.31 58.14 82.31 54.57 82.31 51.01 78.74 51.01 75.18 51.01"/>
  <polygon class="st0" points="75.18 5.35 75.18 8.92 75.18 12.48 78.74 12.48 82.31 12.48 82.31 8.92 82.31 5.35 78.74 5.35 75.18 5.35"/>
  <polygon class="st0" points="86.59 51.01 86.59 54.57 86.59 58.14 90.16 58.14 93.72 58.14 93.72 54.57 93.72 51.01 90.16 51.01 86.59 51.01"/>
  <polygon class="st0" points="176.48 49.58 176.48 54.57 176.48 59.57 181.47 59.57 186.46 59.57 186.46 54.57 186.46 49.58 181.47 49.58 176.48 49.58"/>
  <polygon class="st0" points="165.06 49.58 165.06 54.57 165.06 59.57 170.06 59.57 175.05 59.57 175.05 54.57 175.05 49.58 170.06 49.58 165.06 49.58"/>
  <polygon class="st0" points="187.89 3.92 187.89 8.92 187.89 13.91 192.88 13.91 197.88 13.91 197.88 8.92 197.88 3.92 192.88 3.92 187.89 3.92"/>
  <polygon class="st0" points="153.65 49.58 153.65 54.57 153.65 59.57 158.64 59.57 163.63 59.57 163.63 54.57 163.63 49.58 158.64 49.58 153.65 49.58"/>
  <polygon class="st0" points="187.89 26.75 187.89 31.75 187.89 36.74 192.88 36.74 197.88 36.74 197.88 31.75 197.88 26.75 192.88 26.75 187.89 26.75"/>
  <polygon class="st0" points="187.89 15.34 187.89 20.33 187.89 25.32 192.88 25.32 197.88 25.32 197.88 20.33 197.88 15.34 192.88 15.34 187.89 15.34"/>
  <polygon class="st0" points="142.23 26.75 142.23 31.75 142.23 36.74 147.23 36.74 152.22 36.74 152.22 31.75 152.22 26.75 147.23 26.75 142.23 26.75"/>
  <polygon class="st0" points="142.23 38.17 142.23 43.16 142.23 48.15 147.23 48.15 152.22 48.15 152.22 43.16 152.22 38.17 147.23 38.17 142.23 38.17"/>
  <polygon class="st0" points="142.23 3.92 142.23 8.92 142.23 13.91 147.23 13.91 152.22 13.91 152.22 8.92 152.22 3.92 147.23 3.92 142.23 3.92"/>
  <polygon class="st0" points="142.23 15.34 142.23 20.33 142.23 25.32 147.23 25.32 152.22 25.32 152.22 20.33 152.22 15.34 147.23 15.34 142.23 15.34"/>
  <polygon class="st0" points="266.36 2.5 266.36 8.92 266.36 13.91 266.36 15.34 266.36 20.33 266.36 25.32 266.36 26.75 266.36 31.75 266.36 36.74 266.36 38.17 266.36 43.16 266.36 48.15 261.37 48.15 256.37 48.15 256.37 43.16 256.37 38.17 256.37 36.74 256.37 31.75 256.37 26.75 256.37 25.32 256.37 20.33 256.37 15.34 256.37 13.91 256.37 8.92 256.37 2.5 249.95 2.5 244.96 2.5 243.53 2.5 238.54 2.5 233.55 2.5 232.12 2.5 227.13 2.5 220.71 2.5 220.71 8.92 220.71 13.91 220.71 15.34 220.71 20.33 220.71 25.32 220.71 26.75 220.71 31.75 220.71 36.74 220.71 38.17 220.71 43.16 220.71 48.15 220.71 49.58 220.71 54.57 220.71 60.99 227.13 60.99 233.55 60.99 233.55 54.57 233.55 49.58 233.55 48.15 233.55 43.16 233.55 38.17 233.55 36.74 233.55 31.75 233.55 26.75 233.55 25.32 233.55 20.33 233.55 15.34 238.54 15.34 243.53 15.34 243.53 20.33 243.53 25.32 243.53 26.75 243.53 31.75 243.53 36.74 243.53 38.17 243.53 43.16 243.53 48.15 243.53 49.58 243.53 54.57 243.53 60.99 249.95 60.99 254.95 60.99 256.37 60.99 261.37 60.99 266.36 60.99 267.79 60.99 272.78 60.99 279.2 60.99 279.2 54.57 279.2 49.58 279.2 48.15 279.2 43.16 279.2 38.17 279.2 36.74 279.2 31.75 279.2 26.75 279.2 25.32 279.2 20.33 279.2 15.34 279.2 13.91 279.2 8.92 279.2 2.5 272.78 2.5 266.36 2.5"/>
  <polygon class="st0" points="349.11 12.48 349.11 8.92 349.11 1.07 341.27 1.07 337.7 1.07 333.42 1.07 329.85 1.07 326.29 1.07 322 1.07 318.44 1.07 314.87 1.07 310.59 1.07 307.02 1.07 299.18 1.07 299.18 8.92 299.18 12.48 299.18 16.76 299.18 20.33 299.18 23.9 299.18 28.18 299.18 31.75 299.18 35.31 299.18 39.59 299.18 43.16 299.18 46.73 299.18 51.01 299.18 54.57 299.18 62.42 307.02 62.42 314.87 62.42 314.87 54.57 314.87 51.01 314.87 46.73 314.87 43.16 314.87 39.59 314.87 35.31 314.87 31.75 314.87 28.18 314.87 23.9 314.87 20.33 314.87 16.76 318.44 16.76 322 16.76 326.29 16.76 329.85 16.76 333.42 16.76 337.7 16.76 341.27 16.76 344.83 16.76 344.83 20.33 344.83 23.9 344.83 28.18 344.83 31.75 344.83 35.31 344.83 39.59 344.83 43.16 344.83 46.73 341.27 46.73 337.7 46.73 333.42 46.73 329.85 46.73 322 46.73 322 54.57 322 62.42 329.85 62.42 333.42 62.42 337.7 62.42 341.27 62.42 349.11 62.42 349.11 54.57 349.11 51.01 352.68 51.01 360.53 51.01 360.53 43.16 360.53 39.59 360.53 35.31 360.53 31.75 360.53 28.18 360.53 23.9 360.53 20.33 360.53 12.48 352.68 12.48 349.11 12.48"/>
  <polygon class="st0" points="418.67 0 412.25 0 409.75 0 407.25 0 400.83 0 398.34 0 395.84 0 389.42 0 386.92 0 378 0 378 8.92 378 11.41 378 17.83 378 20.33 378 22.83 378 29.25 378 31.75 378 40.66 386.92 40.66 389.42 40.66 395.84 40.66 398.34 40.66 400.83 40.66 407.25 40.66 409.75 40.66 412.25 40.66 412.25 43.16 412.25 45.66 409.75 45.66 407.25 45.66 400.83 45.66 398.34 45.66 395.84 45.66 389.42 45.66 386.92 45.66 378 45.66 378 54.57 378 63.49 386.92 63.49 389.42 63.49 395.84 63.49 398.34 63.49 400.83 63.49 407.25 63.49 409.75 63.49 412.25 63.49 418.67 63.49 421.16 63.49 430.08 63.49 430.08 54.57 430.08 52.08 430.08 45.66 430.08 43.16 430.08 40.66 430.08 34.24 430.08 31.75 430.08 22.83 421.16 22.83 418.67 22.83 412.25 22.83 409.75 22.83 407.25 22.83 400.83 22.83 398.34 22.83 395.84 22.83 395.84 20.33 395.84 17.83 398.34 17.83 400.83 17.83 407.25 17.83 409.75 17.83 412.25 17.83 418.67 17.83 421.16 17.83 430.08 17.83 430.08 8.92 430.08 0 421.16 0 418.67 0"/>
  <polygon class="st0" points="492.5 .36 486.79 .36 483.94 .36 481.09 .36 475.38 .36 472.53 .36 469.67 .36 463.97 .36 461.11 .36 458.26 .36 452.55 .36 449.7 .36 441.14 .36 441.14 8.92 441.14 17.48 449.7 17.48 452.55 17.48 458.26 17.48 461.11 17.48 463.97 17.48 469.67 17.48 472.53 17.48 475.38 17.48 481.09 17.48 483.94 17.48 486.79 17.48 492.5 17.48 495.36 17.48 503.92 17.48 503.92 8.92 503.92 .36 495.36 .36 492.5 .36"/>
  <polygon class="st0" points="463.97 23.18 463.97 31.75 463.97 34.6 463.97 40.31 463.97 43.16 463.97 46.01 463.97 51.72 463.97 54.57 463.97 63.13 472.53 63.13 481.09 63.13 481.09 54.57 481.09 51.72 481.09 46.01 481.09 43.16 481.09 40.31 481.09 34.6 481.09 31.75 481.09 23.18 472.53 23.18 463.97 23.18"/>
  <polygon class="st0" points="565.98 12.48 565.98 8.92 565.98 1.07 558.13 1.07 554.57 1.07 550.29 1.07 546.72 1.07 543.15 1.07 538.87 1.07 535.3 1.07 527.46 1.07 527.46 8.92 527.46 16.76 535.3 16.76 538.87 16.76 543.15 16.76 546.72 16.76 550.29 16.76 554.57 16.76 558.13 16.76 561.7 16.76 561.7 20.33 561.7 23.9 561.7 28.18 561.7 31.75 561.7 35.31 561.7 39.59 561.7 43.16 561.7 46.73 558.13 46.73 554.57 46.73 550.29 46.73 546.72 46.73 543.15 46.73 538.87 46.73 535.3 46.73 531.74 46.73 531.74 43.16 531.74 39.59 531.74 35.31 531.74 31.75 531.74 23.9 523.89 23.9 516.04 23.9 516.04 31.75 516.04 35.31 516.04 39.59 516.04 43.16 516.04 51.01 523.89 51.01 527.46 51.01 527.46 54.57 527.46 62.42 535.3 62.42 538.87 62.42 543.15 62.42 546.72 62.42 550.29 62.42 554.57 62.42 558.13 62.42 565.98 62.42 565.98 54.57 565.98 51.01 569.55 51.01 577.39 51.01 577.39 43.16 577.39 39.59 577.39 35.31 577.39 31.75 577.39 28.18 577.39 23.9 577.39 20.33 577.39 12.48 569.55 12.48 565.98 12.48"/>
  <polygon class="st0" points="646.28 48.15 646.28 43.16 646.28 38.17 646.28 36.74 646.28 31.75 646.28 25.32 639.86 25.32 634.86 25.32 633.44 25.32 628.44 25.32 623.45 25.32 622.02 25.32 617.03 25.32 612.04 25.32 612.04 20.33 612.04 15.34 617.03 15.34 622.02 15.34 623.45 15.34 628.44 15.34 633.44 15.34 634.86 15.34 639.86 15.34 646.28 15.34 646.28 8.92 646.28 2.5 639.86 2.5 634.86 2.5 633.44 2.5 628.44 2.5 623.45 2.5 622.02 2.5 617.03 2.5 612.04 2.5 610.61 2.5 605.62 2.5 599.2 2.5 599.2 8.92 599.2 13.91 599.2 15.34 599.2 20.33 599.2 25.32 599.2 26.75 599.2 31.75 599.2 36.74 599.2 38.17 599.2 43.16 599.2 48.15 599.2 49.58 599.2 54.57 599.2 60.99 605.62 60.99 612.04 60.99 612.04 54.57 612.04 49.58 612.04 48.15 612.04 43.16 612.04 38.17 617.03 38.17 622.02 38.17 623.45 38.17 628.44 38.17 633.44 38.17 633.44 43.16 633.44 48.15 633.44 49.58 633.44 54.57 633.44 60.99 639.86 60.99 644.85 60.99 646.28 60.99 651.27 60.99 657.69 60.99 657.69 54.57 657.69 48.15 651.27 48.15 646.28 48.15"/>
  <polygon class="st0" points="690.11 3.92 690.11 8.92 690.11 13.91 695.1 13.91 700.1 13.91 700.1 8.92 700.1 3.92 695.1 3.92 690.11 3.92"/>
  <polygon class="st0" points="690.11 26.75 690.11 31.75 690.11 36.74 695.1 36.74 700.1 36.74 700.1 31.75 700.1 26.75 695.1 26.75 690.11 26.75"/>
  <polygon class="st0" points="701.52 49.58 701.52 54.57 701.52 59.57 706.52 59.57 711.51 59.57 711.51 54.57 711.51 49.58 706.52 49.58 701.52 49.58"/>
  <polygon class="st0" points="701.52 3.92 701.52 8.92 701.52 13.91 706.52 13.91 711.51 13.91 711.51 8.92 711.51 3.92 706.52 3.92 701.52 3.92"/>
  <polygon class="st0" points="690.11 49.58 690.11 54.57 690.11 59.57 695.1 59.57 700.1 59.57 700.1 54.57 700.1 49.58 695.1 49.58 690.11 49.58"/>
  <polygon class="st0" points="690.11 38.17 690.11 43.16 690.11 48.15 695.1 48.15 700.1 48.15 700.1 43.16 700.1 38.17 695.1 38.17 690.11 38.17"/>
  <polygon class="st0" points="678.69 3.92 678.69 8.92 678.69 13.91 683.69 13.91 688.68 13.91 688.68 8.92 688.68 3.92 683.69 3.92 678.69 3.92"/>
  <polygon class="st0" points="678.69 49.58 678.69 54.57 678.69 59.57 683.69 59.57 688.68 59.57 688.68 54.57 688.68 49.58 683.69 49.58 678.69 49.58"/>
  <polygon class="st0" points="748.6 28.18 748.6 31.75 748.6 35.31 752.17 35.31 755.74 35.31 755.74 31.75 755.74 28.18 752.17 28.18 748.6 28.18"/>
  <polygon class="st0" points="771.43 28.18 771.43 31.75 771.43 35.31 775 35.31 778.57 35.31 778.57 31.75 778.57 28.18 775 28.18 771.43 28.18"/>
  <polygon class="st0" points="771.43 51.01 771.43 54.57 771.43 58.14 775 58.14 778.57 58.14 778.57 54.57 778.57 51.01 775 51.01 771.43 51.01"/>
  <polygon class="st0" points="737.19 51.01 737.19 54.57 737.19 58.14 740.76 58.14 744.32 58.14 744.32 54.57 744.32 51.01 740.76 51.01 737.19 51.01"/>
  <polygon class="st0" points="760.02 5.35 760.02 8.92 760.02 12.48 763.59 12.48 767.15 12.48 767.15 8.92 767.15 5.35 763.59 5.35 760.02 5.35"/>
  <polygon class="st0" points="771.43 5.35 771.43 8.92 771.43 12.48 775 12.48 778.57 12.48 778.57 8.92 778.57 5.35 775 5.35 771.43 5.35"/>
  <polygon class="st0" points="760.02 28.18 760.02 31.75 760.02 35.31 763.59 35.31 767.15 35.31 767.15 31.75 767.15 28.18 763.59 28.18 760.02 28.18"/>
  <polygon class="st0" points="748.6 51.01 748.6 54.57 748.6 58.14 752.17 58.14 755.74 58.14 755.74 54.57 755.74 51.01 752.17 51.01 748.6 51.01"/>
  <polygon class="st0" points="737.19 5.35 737.19 8.92 737.19 12.48 740.76 12.48 744.32 12.48 744.32 8.92 744.32 5.35 740.76 5.35 737.19 5.35"/>
  <polygon class="st0" points="737.19 28.18 737.19 31.75 737.19 35.31 740.76 35.31 744.32 35.31 744.32 31.75 744.32 28.18 740.76 28.18 737.19 28.18"/>
  <polygon class="st0" points="760.02 51.01 760.02 54.57 760.02 58.14 763.59 58.14 767.15 58.14 767.15 54.57 767.15 51.01 763.59 51.01 760.02 51.01"/>
  <polygon class="st0" points="748.6 5.35 748.6 8.92 748.6 12.48 752.17 12.48 755.74 12.48 755.74 8.92 755.74 5.35 752.17 5.35 748.6 5.35"/>
  <polygon class="st0" points="825.92 6.42 825.92 8.92 825.92 11.41 828.42 11.41 830.91 11.41 830.91 8.92 830.91 6.42 828.42 6.42 825.92 6.42"/>
  <polygon class="st0" points="839.83 6.42 837.33 6.42 837.33 8.92 837.33 11.41 839.83 11.41 842.33 11.41 842.33 8.92 842.33 6.42 839.83 6.42"/>
  <polygon class="st0" points="837.33 52.08 837.33 54.57 837.33 57.07 839.83 57.07 842.33 57.07 842.33 54.57 842.33 52.08 839.83 52.08 837.33 52.08"/>
  <polygon class="st0" points="825.92 52.08 825.92 54.57 825.92 57.07 828.42 57.07 830.91 57.07 830.91 54.57 830.91 52.08 828.42 52.08 825.92 52.08"/>
  <polygon class="st0" points="837.33 29.25 837.33 31.75 837.33 34.24 839.83 34.24 842.33 34.24 842.33 31.75 842.33 29.25 839.83 29.25 837.33 29.25"/>
  <polygon class="st0" points="837.33 40.66 837.33 43.16 837.33 45.66 839.83 45.66 842.33 45.66 842.33 43.16 842.33 40.66 839.83 40.66 837.33 40.66"/>
  <polygon class="st0" points="825.92 29.25 825.92 31.75 825.92 34.24 828.42 34.24 830.91 34.24 830.91 31.75 830.91 29.25 828.42 29.25 825.92 29.25"/>
  <polygon class="st0" points="803.09 29.25 803.09 31.75 803.09 34.24 805.59 34.24 808.09 34.24 808.09 31.75 808.09 29.25 805.59 29.25 803.09 29.25"/>
  <polygon class="st0" points="803.09 52.08 803.09 54.57 803.09 57.07 805.59 57.07 808.09 57.07 808.09 54.57 808.09 52.08 805.59 52.08 803.09 52.08"/>
  <polygon class="st0" points="803.09 17.83 803.09 20.33 803.09 22.83 805.59 22.83 808.09 22.83 808.09 20.33 808.09 17.83 805.59 17.83 803.09 17.83"/>
  <polygon class="st0" points="814.51 52.08 814.51 54.57 814.51 57.07 817 57.07 819.5 57.07 819.5 54.57 819.5 52.08 817 52.08 814.51 52.08"/>
  <polygon class="st0" points="814.51 29.25 814.51 31.75 814.51 34.24 817 34.24 819.5 34.24 819.5 31.75 819.5 29.25 817 29.25 814.51 29.25"/>
  <polygon class="st0" points="814.51 6.42 814.51 8.92 814.51 11.41 817 11.41 819.5 11.41 819.5 8.92 819.5 6.42 817 6.42 814.51 6.42"/>
  <polygon class="st0" points="803.09 6.42 803.09 8.92 803.09 11.41 805.59 11.41 808.09 11.41 808.09 8.92 808.09 6.42 805.59 6.42 803.09 6.42"/>
</svg>